<svg xmlns="http://www.w3.org/2000/svg" viewBox="40 20 680 310">
  <defs>
    <pattern id="dots" x="0" y="0" width="20" height="20" patternUnits="userSpaceOnUse">
      <circle cx="10" cy="10" r="0.4" fill="#555" opacity="0.12"/>
    </pattern>
  </defs>

  <rect x="40" y="20" width="680" height="310" fill="#0F1419" rx="6"/>
  <rect x="40" y="20" width="680" height="310" fill="url(#dots)" rx="6"/>
  <line x1="60" y1="280" x2="700" y2="280" stroke="#3A4550" stroke-width="0.8"/>

  <line x1="60.0" y1="280" x2="60.0" y2="35" stroke="#78909C" stroke-width="0.5" stroke-dasharray="3,5"/>
  <line x1="140.0" y1="280" x2="140.0" y2="35" stroke="#78909C" stroke-width="0.5" stroke-dasharray="3,5"/>
  <line x1="220.0" y1="280" x2="220.0" y2="35" stroke="#78909C" stroke-width="0.5" stroke-dasharray="3,5"/>
  <line x1="300.0" y1="280" x2="300.0" y2="35" stroke="#78909C" stroke-width="0.5" stroke-dasharray="3,5"/>
  <line x1="380.0" y1="280" x2="380.0" y2="35" stroke="#78909C" stroke-width="0.5" stroke-dasharray="3,5"/>
  <line x1="460.0" y1="280" x2="460.0" y2="35" stroke="#78909C" stroke-width="0.5" stroke-dasharray="3,5"/>
  <line x1="540.0" y1="280" x2="540.0" y2="35" stroke="#78909C" stroke-width="0.5" stroke-dasharray="3,5"/>
  <line x1="620.0" y1="280" x2="620.0" y2="35" stroke="#78909C" stroke-width="0.5" stroke-dasharray="3,5"/>
  <line x1="700.0" y1="280" x2="700.0" y2="35" stroke="#78909C" stroke-width="0.5" stroke-dasharray="3,5"/>
  <line x1="100.0" y1="280" x2="100.0" y2="35" stroke="#78909C" stroke-width="0.3" stroke-dasharray="1.5,6"/>
  <line x1="180.0" y1="280" x2="180.0" y2="35" stroke="#78909C" stroke-width="0.3" stroke-dasharray="1.5,6"/>
  <line x1="260.0" y1="280" x2="260.0" y2="35" stroke="#78909C" stroke-width="0.3" stroke-dasharray="1.5,6"/>
  <line x1="340.0" y1="280" x2="340.0" y2="35" stroke="#78909C" stroke-width="0.3" stroke-dasharray="1.5,6"/>
  <line x1="420.0" y1="280" x2="420.0" y2="35" stroke="#78909C" stroke-width="0.3" stroke-dasharray="1.5,6"/>
  <line x1="500.0" y1="280" x2="500.0" y2="35" stroke="#78909C" stroke-width="0.3" stroke-dasharray="1.5,6"/>
  <line x1="580.0" y1="280" x2="580.0" y2="35" stroke="#78909C" stroke-width="0.3" stroke-dasharray="1.5,6"/>
  <line x1="660.0" y1="280" x2="660.0" y2="35" stroke="#78909C" stroke-width="0.3" stroke-dasharray="1.5,6"/>

  <text x="60.0" y="295" text-anchor="middle" font-size="8" fill="#4A5A68" font-family="'SF Mono', monospace">0.5ms</text>
  <text x="140.0" y="295" text-anchor="middle" font-size="8" fill="#4A5A68" font-family="'SF Mono', monospace">1ms</text>
  <text x="220.0" y="295" text-anchor="middle" font-size="8" fill="#4A5A68" font-family="'SF Mono', monospace">2ms</text>
  <text x="300.0" y="295" text-anchor="middle" font-size="8" fill="#4A5A68" font-family="'SF Mono', monospace">4ms</text>
  <text x="380.0" y="295" text-anchor="middle" font-size="8" fill="#4A5A68" font-family="'SF Mono', monospace">8ms</text>
  <text x="460.0" y="295" text-anchor="middle" font-size="8" fill="#4A5A68" font-family="'SF Mono', monospace">16ms</text>
  <text x="540.0" y="295" text-anchor="middle" font-size="8" fill="#4A5A68" font-family="'SF Mono', monospace">32ms</text>
  <text x="620.0" y="295" text-anchor="middle" font-size="8" fill="#4A5A68" font-family="'SF Mono', monospace">64ms</text>
  <text x="700.0" y="295" text-anchor="middle" font-size="8" fill="#4A5A68" font-family="'SF Mono', monospace">128ms</text>
  <text x="48" y="160" text-anchor="middle" font-size="8" fill="#4A5A68" font-family="'SF Mono', monospace" transform="rotate(-90 48 160)">count</text>

  <path d="M 60.0,280.0 L 62.6,280.0 L 65.1,280.0 L 67.7,280.0 L 70.3,280.0 L 72.9,280.0 L 75.4,280.0 L 78.0,280.0 L 80.6,280.0 L 83.1,280.0 L 85.7,280.0 L 88.3,280.0 L 90.8,280.0 L 93.4,280.0 L 96.0,280.0 L 98.6,280.0 L 101.1,280.0 L 103.7,280.0 L 106.3,280.0 L 108.8,280.0 L 111.4,280.0 L 114.0,280.0 L 116.5,280.0 L 119.1,280.0 L 121.7,280.0 L 124.3,280.0 L 126.8,280.0 L 129.4,280.0 L 132.0,280.0 L 134.5,280.0 L 137.1,280.0 L 139.7,280.0 L 142.2,280.0 L 144.8,280.0 L 147.4,280.0 L 150.0,280.0 L 152.5,280.0 L 155.1,280.0 L 157.7,280.0 L 160.2,280.0 L 162.8,280.0 L 165.4,280.0 L 168.0,279.9 L 170.5,279.9 L 173.1,279.9 L 175.7,279.9 L 178.2,279.8 L 180.8,279.8 L 183.4,279.8 L 185.9,279.7 L 188.5,279.6 L 191.1,279.5 L 193.7,279.4 L 196.2,279.3 L 198.8,279.1 L 201.4,278.9 L 203.9,278.7 L 206.5,278.4 L 209.1,278.1 L 211.6,277.7 L 214.2,277.3 L 216.8,276.7 L 219.4,276.1 L 221.9,275.5 L 224.5,274.7 L 227.1,273.7 L 229.6,272.7 L 232.2,271.5 L 234.8,270.2 L 237.3,268.7 L 239.9,267.1 L 242.5,265.2 L 245.1,263.2 L 247.6,260.9 L 250.2,258.5 L 252.8,255.8 L 255.3,252.9 L 257.9,249.8 L 260.5,246.5 L 263.1,242.9 L 265.6,239.2 L 268.2,235.2 L 270.8,231.1 L 273.3,226.7 L 275.9,222.3 L 278.5,217.7 L 281.0,213.0 L 283.6,208.2 L 286.2,203.5 L 288.8,198.7 L 291.3,194.0 L 293.9,189.4 L 296.5,184.9 L 299.0,180.6 L 301.6,176.6 L 304.2,172.8 L 306.7,169.3 L 309.3,166.2 L 311.9,163.4 L 314.5,161.1 L 317.0,159.2 L 319.6,157.8 L 322.2,156.8 L 324.7,156.4 L 327.3,156.4 L 329.9,157.0 L 332.4,158.0 L 335.0,159.6 L 337.6,161.6 L 340.2,164.0 L 342.7,166.8 L 345.3,170.0 L 347.9,173.6 L 350.4,177.4 L 353.0,181.5 L 355.6,185.9 L 358.2,190.4 L 360.7,195.0 L 363.3,199.7 L 365.9,204.5 L 368.4,209.2 L 371.0,214.0 L 373.6,218.6 L 376.1,223.2 L 378.7,227.6 L 381.3,231.9 L 383.9,236.1 L 386.4,240.0 L 389.0,243.7 L 391.6,247.2 L 394.1,250.5 L 396.7,253.6 L 399.3,256.4 L 401.8,259.0 L 404.4,261.4 L 407.0,263.6 L 409.6,265.6 L 412.1,267.4 L 414.7,269.1 L 417.3,270.5 L 419.8,271.8 L 422.4,272.9 L 425.0,273.9 L 427.6,274.8 L 430.1,275.6 L 432.7,276.3 L 435.3,276.9 L 437.8,277.4 L 440.4,277.8 L 443.0,278.2 L 445.5,278.5 L 448.1,278.7 L 450.7,279.0 L 453.3,279.2 L 455.8,279.3 L 458.4,279.4 L 461.0,279.5 L 463.5,279.6 L 466.1,279.7 L 468.7,279.8 L 471.2,279.8 L 473.8,279.9 L 476.4,279.9 L 479.0,279.9 L 481.5,279.9 L 484.1,279.9 L 486.7,280.0 L 489.2,280.0 L 491.8,280.0 L 494.4,280.0 L 496.9,280.0 L 499.5,280.0 L 502.1,280.0 L 504.7,280.0 L 507.2,280.0 L 509.8,280.0 L 512.4,280.0 L 514.9,280.0 L 517.5,280.0 L 520.1,280.0 L 522.7,280.0 L 525.2,280.0 L 527.8,280.0 L 530.4,280.0 L 532.9,280.0 L 535.5,280.0 L 538.1,280.0 L 540.6,280.0 L 543.2,280.0 L 545.8,280.0 L 548.4,280.0 L 550.9,280.0 L 553.5,280.0 L 556.1,280.0 L 558.6,280.0 L 561.2,280.0 L 563.8,280.0 L 566.3,280.0 L 568.9,280.0 L 571.5,280.0 L 574.1,280.0 L 576.6,280.0 L 579.2,280.0 L 581.8,280.0 L 584.3,280.0 L 586.9,280.0 L 589.5,280.0 L 592.0,280.0 L 594.6,280.0 L 597.2,280.0 L 599.8,280.0 L 602.3,280.0 L 604.9,280.0 L 607.5,280.0 L 610.0,280.0 L 612.6,280.0 L 615.2,280.0 L 617.8,280.0 L 620.3,280.0 L 622.9,280.0 L 625.5,280.0 L 628.0,280.0 L 630.6,280.0 L 633.2,280.0 L 635.7,280.0 L 638.3,280.0 L 640.9,280.0 L 643.5,280.0 L 646.0,280.0 L 648.6,280.0 L 651.2,280.0 L 653.7,280.0 L 656.3,280.0 L 658.9,280.0 L 661.4,280.0 L 664.0,280.0 L 666.6,280.0 L 669.2,280.0 L 671.7,280.0 L 674.3,280.0 L 676.9,280.0 L 679.4,280.0 L 682.0,280.0 L 684.6,280.0 L 687.1,280.0 L 689.7,280.0 L 692.3,280.0 L 694.9,280.0 L 697.4,280.0 L 700.0,280.0 L 700.0,280.0 L 697.4,280.0 L 694.9,280.0 L 692.3,280.0 L 689.7,280.0 L 687.1,280.0 L 684.6,280.0 L 682.0,280.0 L 679.4,280.0 L 676.9,280.0 L 674.3,280.0 L 671.7,280.0 L 669.2,280.0 L 666.6,280.0 L 664.0,280.0 L 661.4,280.0 L 658.9,280.0 L 656.3,280.0 L 653.7,280.0 L 651.2,280.0 L 648.6,280.0 L 646.0,280.0 L 643.5,280.0 L 640.9,280.0 L 638.3,280.0 L 635.7,280.0 L 633.2,280.0 L 630.6,280.0 L 628.0,280.0 L 625.5,280.0 L 622.9,280.0 L 620.3,280.0 L 617.8,280.0 L 615.2,280.0 L 612.6,280.0 L 610.0,280.0 L 607.5,280.0 L 604.9,280.0 L 602.3,280.0 L 599.8,280.0 L 597.2,280.0 L 594.6,280.0 L 592.0,280.0 L 589.5,280.0 L 586.9,280.0 L 584.3,280.0 L 581.8,280.0 L 579.2,280.0 L 576.6,280.0 L 574.1,280.0 L 571.5,280.0 L 568.9,280.0 L 566.3,280.0 L 563.8,280.0 L 561.2,280.0 L 558.6,280.0 L 556.1,280.0 L 553.5,280.0 L 550.9,280.0 L 548.4,280.0 L 545.8,280.0 L 543.2,280.0 L 540.6,280.0 L 538.1,280.0 L 535.5,280.0 L 532.9,280.0 L 530.4,280.0 L 527.8,280.0 L 525.2,280.0 L 522.7,280.0 L 520.1,280.0 L 517.5,280.0 L 514.9,280.0 L 512.4,280.0 L 509.8,280.0 L 507.2,280.0 L 504.7,280.0 L 502.1,280.0 L 499.5,280.0 L 496.9,280.0 L 494.4,280.0 L 491.8,280.0 L 489.2,280.0 L 486.7,280.0 L 484.1,280.0 L 481.5,280.0 L 479.0,280.0 L 476.4,280.0 L 473.8,280.0 L 471.2,280.0 L 468.7,280.0 L 466.1,280.0 L 463.5,280.0 L 461.0,280.0 L 458.4,280.0 L 455.8,280.0 L 453.3,280.0 L 450.7,280.0 L 448.1,280.0 L 445.5,280.0 L 443.0,280.0 L 440.4,280.0 L 437.8,280.0 L 435.3,280.0 L 432.7,280.0 L 430.1,280.0 L 427.6,280.0 L 425.0,280.0 L 422.4,280.0 L 419.8,280.0 L 417.3,280.0 L 414.7,280.0 L 412.1,280.0 L 409.6,280.0 L 407.0,280.0 L 404.4,280.0 L 401.8,280.0 L 399.3,280.0 L 396.7,280.0 L 394.1,280.0 L 391.6,280.0 L 389.0,280.0 L 386.4,280.0 L 383.9,280.0 L 381.3,280.0 L 378.7,280.0 L 376.1,280.0 L 373.6,280.0 L 371.0,280.0 L 368.4,280.0 L 365.9,280.0 L 363.3,280.0 L 360.7,280.0 L 358.2,280.0 L 355.6,280.0 L 353.0,280.0 L 350.4,280.0 L 347.9,280.0 L 345.3,280.0 L 342.7,280.0 L 340.2,280.0 L 337.6,280.0 L 335.0,280.0 L 332.4,280.0 L 329.9,280.0 L 327.3,280.0 L 324.7,280.0 L 322.2,280.0 L 319.6,280.0 L 317.0,280.0 L 314.5,280.0 L 311.9,280.0 L 309.3,280.0 L 306.7,280.0 L 304.2,280.0 L 301.6,280.0 L 299.0,280.0 L 296.5,280.0 L 293.9,280.0 L 291.3,280.0 L 288.8,280.0 L 286.2,280.0 L 283.6,280.0 L 281.0,280.0 L 278.5,280.0 L 275.9,280.0 L 273.3,280.0 L 270.8,280.0 L 268.2,280.0 L 265.6,280.0 L 263.1,280.0 L 260.5,280.0 L 257.9,280.0 L 255.3,280.0 L 252.8,280.0 L 250.2,280.0 L 247.6,280.0 L 245.1,280.0 L 242.5,280.0 L 239.9,280.0 L 237.3,280.0 L 234.8,280.0 L 232.2,280.0 L 229.6,280.0 L 227.1,280.0 L 224.5,280.0 L 221.9,280.0 L 219.4,280.0 L 216.8,280.0 L 214.2,280.0 L 211.6,280.0 L 209.1,280.0 L 206.5,280.0 L 203.9,280.0 L 201.4,280.0 L 198.8,280.0 L 196.2,280.0 L 193.7,280.0 L 191.1,280.0 L 188.5,280.0 L 185.9,280.0 L 183.4,280.0 L 180.8,280.0 L 178.2,280.0 L 175.7,280.0 L 173.1,280.0 L 170.5,280.0 L 168.0,280.0 L 165.4,280.0 L 162.8,280.0 L 160.2,280.0 L 157.7,280.0 L 155.1,280.0 L 152.5,280.0 L 150.0,280.0 L 147.4,280.0 L 144.8,280.0 L 142.2,280.0 L 139.7,280.0 L 137.1,280.0 L 134.5,280.0 L 132.0,280.0 L 129.4,280.0 L 126.8,280.0 L 124.3,280.0 L 121.7,280.0 L 119.1,280.0 L 116.5,280.0 L 114.0,280.0 L 111.4,280.0 L 108.8,280.0 L 106.3,280.0 L 103.7,280.0 L 101.1,280.0 L 98.6,280.0 L 96.0,280.0 L 93.4,280.0 L 90.8,280.0 L 88.3,280.0 L 85.7,280.0 L 83.1,280.0 L 80.6,280.0 L 78.0,280.0 L 75.4,280.0 L 72.9,280.0 L 70.3,280.0 L 67.7,280.0 L 65.1,280.0 L 62.6,280.0 L 60.0,280.0 Z" fill="#1B4F72" stroke="#2E86C1" stroke-width="0.6" opacity="0.9"/>
  <path d="M 60.0,280.0 L 62.6,280.0 L 65.1,280.0 L 67.7,280.0 L 70.3,280.0 L 72.9,280.0 L 75.4,280.0 L 78.0,280.0 L 80.6,280.0 L 83.1,280.0 L 85.7,280.0 L 88.3,280.0 L 90.8,280.0 L 93.4,280.0 L 96.0,280.0 L 98.6,280.0 L 101.1,280.0 L 103.7,280.0 L 106.3,280.0 L 108.8,280.0 L 111.4,280.0 L 114.0,280.0 L 116.5,280.0 L 119.1,280.0 L 121.7,280.0 L 124.3,280.0 L 126.8,280.0 L 129.4,280.0 L 132.0,279.9 L 134.5,279.9 L 137.1,279.9 L 139.7,279.8 L 142.2,279.8 L 144.8,279.7 L 147.4,279.7 L 150.0,279.6 L 152.5,279.4 L 155.1,279.3 L 157.7,279.1 L 160.2,278.9 L 162.8,278.6 L 165.4,278.2 L 168.0,277.8 L 170.5,277.3 L 173.1,276.7 L 175.7,275.9 L 178.2,275.1 L 180.8,274.1 L 183.4,272.9 L 185.9,271.5 L 188.5,269.9 L 191.1,268.0 L 193.7,265.9 L 196.2,263.5 L 198.8,260.8 L 201.4,257.8 L 203.9,254.5 L 206.5,250.8 L 209.1,246.8 L 211.6,242.4 L 214.2,237.6 L 216.8,232.5 L 219.4,227.0 L 221.9,221.2 L 224.5,215.1 L 227.1,208.7 L 229.6,202.1 L 232.2,195.2 L 234.8,188.3 L 237.3,181.2 L 239.9,174.1 L 242.5,167.0 L 245.1,160.0 L 247.6,153.1 L 250.2,146.5 L 252.8,140.1 L 255.3,134.0 L 257.9,128.2 L 260.5,122.9 L 263.1,118.0 L 265.6,113.6 L 268.2,109.6 L 270.8,106.2 L 273.3,103.3 L 275.9,100.9 L 278.5,98.9 L 281.0,97.5 L 283.6,96.6 L 286.2,96.0 L 288.8,95.9 L 291.3,96.2 L 293.9,96.9 L 296.5,97.9 L 299.0,99.2 L 301.6,100.8 L 304.2,102.6 L 306.7,104.7 L 309.3,107.1 L 311.9,109.6 L 314.5,112.4 L 317.0,115.3 L 319.6,118.5 L 322.2,121.9 L 324.7,125.4 L 327.3,129.2 L 329.9,133.1 L 332.4,137.2 L 335.0,141.5 L 337.6,146.0 L 340.2,150.7 L 342.7,155.5 L 345.3,160.4 L 347.9,165.5 L 350.4,170.6 L 353.0,175.9 L 355.6,181.2 L 358.2,186.5 L 360.7,191.8 L 363.3,197.1 L 365.9,202.4 L 368.4,207.6 L 371.0,212.6 L 373.6,217.6 L 376.1,222.4 L 378.7,227.0 L 381.3,231.4 L 383.9,235.6 L 386.4,239.7 L 389.0,243.4 L 391.6,247.0 L 394.1,250.3 L 396.7,253.5 L 399.3,256.3 L 401.8,259.0 L 404.4,261.4 L 407.0,263.6 L 409.6,265.6 L 412.1,267.4 L 414.7,269.0 L 417.3,270.5 L 419.8,271.8 L 422.4,272.9 L 425.0,273.9 L 427.6,274.8 L 430.1,275.6 L 432.7,276.3 L 435.3,276.9 L 437.8,277.4 L 440.4,277.8 L 443.0,278.2 L 445.5,278.5 L 448.1,278.7 L 450.7,279.0 L 453.3,279.2 L 455.8,279.3 L 458.4,279.4 L 461.0,279.5 L 463.5,279.6 L 466.1,279.7 L 468.7,279.8 L 471.2,279.8 L 473.8,279.9 L 476.4,279.9 L 479.0,279.9 L 481.5,279.9 L 484.1,279.9 L 486.7,280.0 L 489.2,280.0 L 491.8,280.0 L 494.4,280.0 L 496.9,280.0 L 499.5,280.0 L 502.1,280.0 L 504.7,280.0 L 507.2,280.0 L 509.8,280.0 L 512.4,280.0 L 514.9,280.0 L 517.5,280.0 L 520.1,280.0 L 522.7,280.0 L 525.2,280.0 L 527.8,280.0 L 530.4,280.0 L 532.9,280.0 L 535.5,280.0 L 538.1,280.0 L 540.6,280.0 L 543.2,280.0 L 545.8,280.0 L 548.4,280.0 L 550.9,280.0 L 553.5,280.0 L 556.1,280.0 L 558.6,280.0 L 561.2,280.0 L 563.8,280.0 L 566.3,280.0 L 568.9,280.0 L 571.5,280.0 L 574.1,280.0 L 576.6,280.0 L 579.2,280.0 L 581.8,280.0 L 584.3,280.0 L 586.9,280.0 L 589.5,280.0 L 592.0,280.0 L 594.6,280.0 L 597.2,280.0 L 599.8,280.0 L 602.3,280.0 L 604.9,280.0 L 607.5,280.0 L 610.0,280.0 L 612.6,280.0 L 615.2,280.0 L 617.8,280.0 L 620.3,280.0 L 622.9,280.0 L 625.5,280.0 L 628.0,280.0 L 630.6,280.0 L 633.2,280.0 L 635.7,280.0 L 638.3,280.0 L 640.9,280.0 L 643.5,280.0 L 646.0,280.0 L 648.6,280.0 L 651.2,280.0 L 653.7,280.0 L 656.3,280.0 L 658.9,280.0 L 661.4,280.0 L 664.0,280.0 L 666.6,280.0 L 669.2,280.0 L 671.7,280.0 L 674.3,280.0 L 676.9,280.0 L 679.4,280.0 L 682.0,280.0 L 684.6,280.0 L 687.1,280.0 L 689.7,280.0 L 692.3,280.0 L 694.9,280.0 L 697.4,280.0 L 700.0,280.0 L 700.0,280.0 L 697.4,280.0 L 694.9,280.0 L 692.3,280.0 L 689.7,280.0 L 687.1,280.0 L 684.6,280.0 L 682.0,280.0 L 679.4,280.0 L 676.9,280.0 L 674.3,280.0 L 671.7,280.0 L 669.2,280.0 L 666.6,280.0 L 664.0,280.0 L 661.4,280.0 L 658.9,280.0 L 656.3,280.0 L 653.7,280.0 L 651.2,280.0 L 648.6,280.0 L 646.0,280.0 L 643.5,280.0 L 640.9,280.0 L 638.3,280.0 L 635.7,280.0 L 633.2,280.0 L 630.6,280.0 L 628.0,280.0 L 625.5,280.0 L 622.9,280.0 L 620.3,280.0 L 617.8,280.0 L 615.2,280.0 L 612.6,280.0 L 610.0,280.0 L 607.5,280.0 L 604.9,280.0 L 602.3,280.0 L 599.8,280.0 L 597.2,280.0 L 594.6,280.0 L 592.0,280.0 L 589.5,280.0 L 586.9,280.0 L 584.3,280.0 L 581.8,280.0 L 579.2,280.0 L 576.6,280.0 L 574.1,280.0 L 571.5,280.0 L 568.9,280.0 L 566.3,280.0 L 563.8,280.0 L 561.2,280.0 L 558.6,280.0 L 556.1,280.0 L 553.5,280.0 L 550.9,280.0 L 548.4,280.0 L 545.8,280.0 L 543.2,280.0 L 540.6,280.0 L 538.1,280.0 L 535.5,280.0 L 532.9,280.0 L 530.4,280.0 L 527.8,280.0 L 525.2,280.0 L 522.7,280.0 L 520.1,280.0 L 517.5,280.0 L 514.9,280.0 L 512.4,280.0 L 509.8,280.0 L 507.2,280.0 L 504.7,280.0 L 502.1,280.0 L 499.5,280.0 L 496.9,280.0 L 494.4,280.0 L 491.8,280.0 L 489.2,280.0 L 486.7,280.0 L 484.1,279.9 L 481.5,279.9 L 479.0,279.9 L 476.4,279.9 L 473.8,279.9 L 471.2,279.8 L 468.7,279.8 L 466.1,279.7 L 463.5,279.6 L 461.0,279.5 L 458.4,279.4 L 455.8,279.3 L 453.3,279.2 L 450.7,279.0 L 448.1,278.7 L 445.5,278.5 L 443.0,278.2 L 440.4,277.8 L 437.8,277.4 L 435.3,276.9 L 432.7,276.3 L 430.1,275.6 L 427.6,274.8 L 425.0,273.9 L 422.4,272.9 L 419.8,271.8 L 417.3,270.5 L 414.7,269.1 L 412.1,267.4 L 409.6,265.6 L 407.0,263.6 L 404.4,261.4 L 401.8,259.0 L 399.3,256.4 L 396.7,253.6 L 394.1,250.5 L 391.6,247.2 L 389.0,243.7 L 386.4,240.0 L 383.9,236.1 L 381.3,231.9 L 378.7,227.6 L 376.1,223.2 L 373.6,218.6 L 371.0,214.0 L 368.4,209.2 L 365.9,204.5 L 363.3,199.7 L 360.7,195.0 L 358.2,190.4 L 355.6,185.9 L 353.0,181.5 L 350.4,177.4 L 347.9,173.6 L 345.3,170.0 L 342.7,166.8 L 340.2,164.0 L 337.6,161.6 L 335.0,159.6 L 332.4,158.0 L 329.9,157.0 L 327.3,156.4 L 324.7,156.4 L 322.2,156.8 L 319.6,157.8 L 317.0,159.2 L 314.5,161.1 L 311.9,163.4 L 309.3,166.2 L 306.7,169.3 L 304.2,172.8 L 301.6,176.6 L 299.0,180.6 L 296.5,184.9 L 293.9,189.4 L 291.3,194.0 L 288.8,198.7 L 286.2,203.5 L 283.6,208.2 L 281.0,213.0 L 278.5,217.7 L 275.9,222.3 L 273.3,226.7 L 270.8,231.1 L 268.2,235.2 L 265.6,239.2 L 263.1,242.9 L 260.5,246.5 L 257.9,249.8 L 255.3,252.9 L 252.8,255.8 L 250.2,258.5 L 247.6,260.9 L 245.1,263.2 L 242.5,265.2 L 239.9,267.1 L 237.3,268.7 L 234.8,270.2 L 232.2,271.5 L 229.6,272.7 L 227.1,273.7 L 224.5,274.7 L 221.9,275.5 L 219.4,276.1 L 216.8,276.7 L 214.2,277.3 L 211.6,277.7 L 209.1,278.1 L 206.5,278.4 L 203.9,278.7 L 201.4,278.9 L 198.8,279.1 L 196.2,279.3 L 193.7,279.4 L 191.1,279.5 L 188.5,279.6 L 185.9,279.7 L 183.4,279.8 L 180.8,279.8 L 178.2,279.8 L 175.7,279.9 L 173.1,279.9 L 170.5,279.9 L 168.0,279.9 L 165.4,280.0 L 162.8,280.0 L 160.2,280.0 L 157.7,280.0 L 155.1,280.0 L 152.5,280.0 L 150.0,280.0 L 147.4,280.0 L 144.8,280.0 L 142.2,280.0 L 139.7,280.0 L 137.1,280.0 L 134.5,280.0 L 132.0,280.0 L 129.4,280.0 L 126.8,280.0 L 124.3,280.0 L 121.7,280.0 L 119.1,280.0 L 116.5,280.0 L 114.0,280.0 L 111.4,280.0 L 108.8,280.0 L 106.3,280.0 L 103.7,280.0 L 101.1,280.0 L 98.6,280.0 L 96.0,280.0 L 93.4,280.0 L 90.8,280.0 L 88.3,280.0 L 85.7,280.0 L 83.1,280.0 L 80.6,280.0 L 78.0,280.0 L 75.4,280.0 L 72.9,280.0 L 70.3,280.0 L 67.7,280.0 L 65.1,280.0 L 62.6,280.0 L 60.0,280.0 Z" fill="#1E8449" stroke="#27AE60" stroke-width="0.6" opacity="0.9"/>
  <path d="M 60.0,280.0 L 62.6,280.0 L 65.1,280.0 L 67.7,280.0 L 70.3,280.0 L 72.9,280.0 L 75.4,280.0 L 78.0,280.0 L 80.6,280.0 L 83.1,280.0 L 85.7,280.0 L 88.3,280.0 L 90.8,280.0 L 93.4,280.0 L 96.0,280.0 L 98.6,280.0 L 101.1,280.0 L 103.7,280.0 L 106.3,280.0 L 108.8,280.0 L 111.4,280.0 L 114.0,280.0 L 116.5,280.0 L 119.1,280.0 L 121.7,280.0 L 124.3,280.0 L 126.8,280.0 L 129.4,280.0 L 132.0,279.9 L 134.5,279.9 L 137.1,279.9 L 139.7,279.8 L 142.2,279.8 L 144.8,279.7 L 147.4,279.7 L 150.0,279.6 L 152.5,279.4 L 155.1,279.3 L 157.7,279.1 L 160.2,278.9 L 162.8,278.6 L 165.4,278.2 L 168.0,277.8 L 170.5,277.3 L 173.1,276.7 L 175.7,275.9 L 178.2,275.1 L 180.8,274.0 L 183.4,272.8 L 185.9,271.4 L 188.5,269.8 L 191.1,268.0 L 193.7,265.9 L 196.2,263.5 L 198.8,260.8 L 201.4,257.8 L 203.9,254.4 L 206.5,250.7 L 209.1,246.6 L 211.6,242.2 L 214.2,237.4 L 216.8,232.2 L 219.4,226.7 L 221.9,220.8 L 224.5,214.7 L 227.1,208.2 L 229.6,201.5 L 232.2,194.5 L 234.8,187.4 L 237.3,180.2 L 239.9,172.9 L 242.5,165.6 L 245.1,158.3 L 247.6,151.1 L 250.2,144.1 L 252.8,137.3 L 255.3,130.8 L 257.9,124.5 L 260.5,118.6 L 263.1,113.1 L 265.6,107.9 L 268.2,103.2 L 270.8,98.8 L 273.3,94.9 L 275.9,91.3 L 278.5,88.1 L 281.0,85.3 L 283.6,82.8 L 286.2,80.6 L 288.8,78.7 L 291.3,77.1 L 293.9,75.6 L 296.5,74.3 L 299.0,73.1 L 301.6,72.1 L 304.2,71.1 L 306.7,70.3 L 309.3,69.5 L 311.9,68.7 L 314.5,68.1 L 317.0,67.5 L 319.6,66.9 L 322.2,66.5 L 324.7,66.1 L 327.3,65.9 L 329.9,65.8 L 332.4,65.8 L 335.0,66.0 L 337.6,66.4 L 340.2,67.0 L 342.7,67.9 L 345.3,68.9 L 347.9,70.2 L 350.4,71.8 L 353.0,73.6 L 355.6,75.7 L 358.2,78.0 L 360.7,80.6 L 363.3,83.5 L 365.9,86.6 L 368.4,90.0 L 371.0,93.6 L 373.6,97.4 L 376.1,101.4 L 378.7,105.7 L 381.3,110.1 L 383.9,114.7 L 386.4,119.5 L 389.0,124.4 L 391.6,129.4 L 394.1,134.6 L 396.7,139.8 L 399.3,145.1 L 401.8,150.5 L 404.4,155.9 L 407.0,161.3 L 409.6,166.7 L 412.1,172.2 L 414.7,177.5 L 417.3,182.9 L 419.8,188.2 L 422.4,193.4 L 425.0,198.5 L 427.6,203.4 L 430.1,208.3 L 432.7,213.0 L 435.3,217.6 L 437.8,222.0 L 440.4,226.2 L 443.0,230.3 L 445.5,234.2 L 448.1,237.9 L 450.7,241.4 L 453.3,244.7 L 455.8,247.8 L 458.4,250.7 L 461.0,253.5 L 463.5,256.0 L 466.1,258.4 L 468.7,260.6 L 471.2,262.6 L 473.8,264.5 L 476.4,266.2 L 479.0,267.7 L 481.5,269.1 L 484.1,270.4 L 486.7,271.5 L 489.2,272.6 L 491.8,273.5 L 494.4,274.3 L 496.9,275.1 L 499.5,275.7 L 502.1,276.3 L 504.7,276.8 L 507.2,277.3 L 509.8,277.7 L 512.4,278.0 L 514.9,278.3 L 517.5,278.6 L 520.1,278.8 L 522.7,279.0 L 525.2,279.1 L 527.8,279.3 L 530.4,279.4 L 532.9,279.5 L 535.5,279.6 L 538.1,279.7 L 540.6,279.7 L 543.2,279.8 L 545.8,279.8 L 548.4,279.8 L 550.9,279.9 L 553.5,279.9 L 556.1,279.9 L 558.6,279.9 L 561.2,279.9 L 563.8,280.0 L 566.3,280.0 L 568.9,280.0 L 571.5,280.0 L 574.1,280.0 L 576.6,280.0 L 579.2,280.0 L 581.8,280.0 L 584.3,280.0 L 586.9,280.0 L 589.5,280.0 L 592.0,280.0 L 594.6,280.0 L 597.2,280.0 L 599.8,280.0 L 602.3,280.0 L 604.9,280.0 L 607.5,280.0 L 610.0,280.0 L 612.6,280.0 L 615.2,280.0 L 617.8,280.0 L 620.3,280.0 L 622.9,280.0 L 625.5,280.0 L 628.0,280.0 L 630.6,280.0 L 633.2,280.0 L 635.7,280.0 L 638.3,280.0 L 640.9,280.0 L 643.5,280.0 L 646.0,280.0 L 648.6,280.0 L 651.2,280.0 L 653.7,280.0 L 656.3,280.0 L 658.9,280.0 L 661.4,280.0 L 664.0,280.0 L 666.6,280.0 L 669.2,280.0 L 671.7,280.0 L 674.3,280.0 L 676.9,280.0 L 679.4,280.0 L 682.0,280.0 L 684.6,280.0 L 687.1,280.0 L 689.7,280.0 L 692.3,280.0 L 694.9,280.0 L 697.4,280.0 L 700.0,280.0 L 700.0,280.0 L 697.4,280.0 L 694.9,280.0 L 692.3,280.0 L 689.7,280.0 L 687.1,280.0 L 684.6,280.0 L 682.0,280.0 L 679.4,280.0 L 676.9,280.0 L 674.3,280.0 L 671.7,280.0 L 669.2,280.0 L 666.6,280.0 L 664.0,280.0 L 661.4,280.0 L 658.9,280.0 L 656.3,280.0 L 653.7,280.0 L 651.2,280.0 L 648.6,280.0 L 646.0,280.0 L 643.5,280.0 L 640.9,280.0 L 638.3,280.0 L 635.7,280.0 L 633.2,280.0 L 630.6,280.0 L 628.0,280.0 L 625.5,280.0 L 622.9,280.0 L 620.3,280.0 L 617.8,280.0 L 615.2,280.0 L 612.6,280.0 L 610.0,280.0 L 607.5,280.0 L 604.9,280.0 L 602.3,280.0 L 599.8,280.0 L 597.2,280.0 L 594.6,280.0 L 592.0,280.0 L 589.5,280.0 L 586.9,280.0 L 584.3,280.0 L 581.8,280.0 L 579.2,280.0 L 576.6,280.0 L 574.1,280.0 L 571.5,280.0 L 568.9,280.0 L 566.3,280.0 L 563.8,280.0 L 561.2,280.0 L 558.6,280.0 L 556.1,280.0 L 553.5,280.0 L 550.9,280.0 L 548.4,280.0 L 545.8,280.0 L 543.2,280.0 L 540.6,280.0 L 538.1,280.0 L 535.5,280.0 L 532.9,280.0 L 530.4,280.0 L 527.8,280.0 L 525.2,280.0 L 522.7,280.0 L 520.1,280.0 L 517.5,280.0 L 514.9,280.0 L 512.4,280.0 L 509.8,280.0 L 507.2,280.0 L 504.7,280.0 L 502.1,280.0 L 499.5,280.0 L 496.9,280.0 L 494.4,280.0 L 491.8,280.0 L 489.2,280.0 L 486.7,280.0 L 484.1,279.9 L 481.5,279.9 L 479.0,279.9 L 476.4,279.9 L 473.8,279.9 L 471.2,279.8 L 468.7,279.8 L 466.1,279.7 L 463.5,279.6 L 461.0,279.5 L 458.4,279.4 L 455.8,279.3 L 453.3,279.2 L 450.7,279.0 L 448.1,278.7 L 445.5,278.5 L 443.0,278.2 L 440.4,277.8 L 437.8,277.4 L 435.3,276.9 L 432.7,276.3 L 430.1,275.6 L 427.6,274.8 L 425.0,273.9 L 422.4,272.9 L 419.8,271.8 L 417.3,270.5 L 414.7,269.0 L 412.1,267.4 L 409.6,265.6 L 407.0,263.6 L 404.4,261.4 L 401.8,259.0 L 399.3,256.3 L 396.7,253.5 L 394.1,250.3 L 391.6,247.0 L 389.0,243.4 L 386.4,239.7 L 383.9,235.6 L 381.3,231.4 L 378.7,227.0 L 376.1,222.4 L 373.6,217.6 L 371.0,212.6 L 368.4,207.6 L 365.9,202.4 L 363.3,197.1 L 360.7,191.8 L 358.2,186.5 L 355.6,181.2 L 353.0,175.9 L 350.4,170.6 L 347.9,165.5 L 345.3,160.4 L 342.7,155.5 L 340.2,150.7 L 337.6,146.0 L 335.0,141.5 L 332.4,137.2 L 329.9,133.1 L 327.3,129.2 L 324.7,125.4 L 322.2,121.9 L 319.6,118.5 L 317.0,115.3 L 314.5,112.4 L 311.9,109.6 L 309.3,107.1 L 306.7,104.7 L 304.2,102.6 L 301.6,100.8 L 299.0,99.2 L 296.5,97.9 L 293.9,96.9 L 291.3,96.2 L 288.8,95.9 L 286.2,96.0 L 283.6,96.6 L 281.0,97.5 L 278.5,98.9 L 275.9,100.9 L 273.3,103.3 L 270.8,106.2 L 268.2,109.6 L 265.6,113.6 L 263.1,118.0 L 260.5,122.9 L 257.9,128.2 L 255.3,134.0 L 252.8,140.1 L 250.2,146.5 L 247.6,153.1 L 245.1,160.0 L 242.5,167.0 L 239.9,174.1 L 237.3,181.2 L 234.8,188.3 L 232.2,195.2 L 229.6,202.1 L 227.1,208.7 L 224.5,215.1 L 221.9,221.2 L 219.4,227.0 L 216.8,232.5 L 214.2,237.6 L 211.6,242.4 L 209.1,246.8 L 206.5,250.8 L 203.9,254.5 L 201.4,257.8 L 198.8,260.8 L 196.2,263.5 L 193.7,265.9 L 191.1,268.0 L 188.5,269.9 L 185.9,271.5 L 183.4,272.9 L 180.8,274.1 L 178.2,275.1 L 175.7,275.9 L 173.1,276.7 L 170.5,277.3 L 168.0,277.8 L 165.4,278.2 L 162.8,278.6 L 160.2,278.9 L 157.7,279.1 L 155.1,279.3 L 152.5,279.4 L 150.0,279.6 L 147.4,279.7 L 144.8,279.7 L 142.2,279.8 L 139.7,279.8 L 137.1,279.9 L 134.5,279.9 L 132.0,279.9 L 129.4,280.0 L 126.8,280.0 L 124.3,280.0 L 121.7,280.0 L 119.1,280.0 L 116.5,280.0 L 114.0,280.0 L 111.4,280.0 L 108.8,280.0 L 106.3,280.0 L 103.7,280.0 L 101.1,280.0 L 98.6,280.0 L 96.0,280.0 L 93.4,280.0 L 90.8,280.0 L 88.3,280.0 L 85.7,280.0 L 83.1,280.0 L 80.6,280.0 L 78.0,280.0 L 75.4,280.0 L 72.9,280.0 L 70.3,280.0 L 67.7,280.0 L 65.1,280.0 L 62.6,280.0 L 60.0,280.0 Z" fill="#B7950B" stroke="#F1C40F" stroke-width="0.6" opacity="0.9"/>
  <path d="M 60.0,280.0 L 62.6,280.0 L 65.1,280.0 L 67.7,280.0 L 70.3,280.0 L 72.9,280.0 L 75.4,280.0 L 78.0,280.0 L 80.6,280.0 L 83.1,280.0 L 85.7,280.0 L 88.3,280.0 L 90.8,280.0 L 93.4,280.0 L 96.0,280.0 L 98.6,280.0 L 101.1,280.0 L 103.7,280.0 L 106.3,280.0 L 108.8,280.0 L 111.4,280.0 L 114.0,280.0 L 116.5,280.0 L 119.1,280.0 L 121.7,280.0 L 124.3,280.0 L 126.8,280.0 L 129.4,280.0 L 132.0,279.9 L 134.5,279.9 L 137.1,279.9 L 139.7,279.8 L 142.2,279.8 L 144.8,279.7 L 147.4,279.7 L 150.0,279.6 L 152.5,279.4 L 155.1,279.3 L 157.7,279.1 L 160.2,278.9 L 162.8,278.6 L 165.4,278.2 L 168.0,277.8 L 170.5,277.3 L 173.1,276.7 L 175.7,275.9 L 178.2,275.1 L 180.8,274.0 L 183.4,272.8 L 185.9,271.4 L 188.5,269.8 L 191.1,268.0 L 193.7,265.9 L 196.2,263.5 L 198.8,260.8 L 201.4,257.8 L 203.9,254.4 L 206.5,250.7 L 209.1,246.6 L 211.6,242.2 L 214.2,237.4 L 216.8,232.2 L 219.4,226.7 L 221.9,220.8 L 224.5,214.7 L 227.1,208.2 L 229.6,201.5 L 232.2,194.5 L 234.8,187.4 L 237.3,180.2 L 239.9,172.9 L 242.5,165.6 L 245.1,158.3 L 247.6,151.1 L 250.2,144.1 L 252.8,137.3 L 255.3,130.8 L 257.9,124.5 L 260.5,118.6 L 263.1,113.1 L 265.6,107.9 L 268.2,103.2 L 270.8,98.8 L 273.3,94.9 L 275.9,91.3 L 278.5,88.1 L 281.0,85.3 L 283.6,82.8 L 286.2,80.6 L 288.8,78.7 L 291.3,77.0 L 293.9,75.6 L 296.5,74.3 L 299.0,73.1 L 301.6,72.1 L 304.2,71.1 L 306.7,70.3 L 309.3,69.5 L 311.9,68.7 L 314.5,68.1 L 317.0,67.5 L 319.6,66.9 L 322.2,66.5 L 324.7,66.1 L 327.3,65.8 L 329.9,65.7 L 332.4,65.7 L 335.0,65.9 L 337.6,66.3 L 340.2,66.9 L 342.7,67.6 L 345.3,68.6 L 347.9,69.9 L 350.4,71.3 L 353.0,73.0 L 355.6,75.0 L 358.2,77.2 L 360.7,79.6 L 363.3,82.2 L 365.9,85.1 L 368.4,88.1 L 371.0,91.4 L 373.6,94.8 L 376.1,98.3 L 378.7,102.0 L 381.3,105.7 L 383.9,109.6 L 386.4,113.5 L 389.0,117.4 L 391.6,121.3 L 394.1,125.1 L 396.7,128.9 L 399.3,132.6 L 401.8,136.2 L 404.4,139.6 L 407.0,142.8 L 409.6,145.9 L 412.1,148.7 L 414.7,151.2 L 417.3,153.5 L 419.8,155.5 L 422.4,157.2 L 425.0,158.6 L 427.6,159.6 L 430.1,160.4 L 432.7,160.8 L 435.3,161.0 L 437.8,160.8 L 440.4,160.4 L 443.0,159.7 L 445.5,158.8 L 448.1,157.8 L 450.7,156.6 L 453.3,155.2 L 455.8,153.8 L 458.4,152.4 L 461.0,151.1 L 463.5,149.7 L 466.1,148.5 L 468.7,147.5 L 471.2,146.7 L 473.8,146.1 L 476.4,145.8 L 479.0,145.8 L 481.5,146.1 L 484.1,146.9 L 486.7,147.9 L 489.2,149.4 L 491.8,151.2 L 494.4,153.5 L 496.9,156.1 L 499.5,159.1 L 502.1,162.4 L 504.7,166.0 L 507.2,169.9 L 509.8,174.1 L 512.4,178.5 L 514.9,183.1 L 517.5,187.8 L 520.1,192.6 L 522.7,197.5 L 525.2,202.4 L 527.8,207.3 L 530.4,212.2 L 532.9,217.0 L 535.5,221.7 L 538.1,226.2 L 540.6,230.6 L 543.2,234.8 L 545.8,238.8 L 548.4,242.6 L 550.9,246.2 L 553.5,249.6 L 556.1,252.7 L 558.6,255.6 L 561.2,258.3 L 563.8,260.8 L 566.3,263.1 L 568.9,265.1 L 571.5,267.0 L 574.1,268.6 L 576.6,270.1 L 579.2,271.5 L 581.8,272.7 L 584.3,273.7 L 586.9,274.6 L 589.5,275.4 L 592.0,276.1 L 594.6,276.7 L 597.2,277.2 L 599.8,277.7 L 602.3,278.1 L 604.9,278.4 L 607.5,278.7 L 610.0,278.9 L 612.6,279.1 L 615.2,279.3 L 617.8,279.4 L 620.3,279.5 L 622.9,279.6 L 625.5,279.7 L 628.0,279.7 L 630.6,279.8 L 633.2,279.8 L 635.7,279.9 L 638.3,279.9 L 640.9,279.9 L 643.5,279.9 L 646.0,280.0 L 648.6,280.0 L 651.2,280.0 L 653.7,280.0 L 656.3,280.0 L 658.9,280.0 L 661.4,280.0 L 664.0,280.0 L 666.6,280.0 L 669.2,280.0 L 671.7,280.0 L 674.3,280.0 L 676.9,280.0 L 679.4,280.0 L 682.0,280.0 L 684.6,280.0 L 687.1,280.0 L 689.7,280.0 L 692.3,280.0 L 694.9,280.0 L 697.4,280.0 L 700.0,280.0 L 700.0,280.0 L 697.4,280.0 L 694.9,280.0 L 692.3,280.0 L 689.7,280.0 L 687.1,280.0 L 684.6,280.0 L 682.0,280.0 L 679.4,280.0 L 676.9,280.0 L 674.3,280.0 L 671.7,280.0 L 669.2,280.0 L 666.6,280.0 L 664.0,280.0 L 661.4,280.0 L 658.9,280.0 L 656.3,280.0 L 653.7,280.0 L 651.2,280.0 L 648.6,280.0 L 646.0,280.0 L 643.5,280.0 L 640.9,280.0 L 638.3,280.0 L 635.7,280.0 L 633.2,280.0 L 630.6,280.0 L 628.0,280.0 L 625.5,280.0 L 622.9,280.0 L 620.3,280.0 L 617.8,280.0 L 615.2,280.0 L 612.6,280.0 L 610.0,280.0 L 607.5,280.0 L 604.9,280.0 L 602.3,280.0 L 599.8,280.0 L 597.2,280.0 L 594.6,280.0 L 592.0,280.0 L 589.5,280.0 L 586.9,280.0 L 584.3,280.0 L 581.8,280.0 L 579.2,280.0 L 576.6,280.0 L 574.1,280.0 L 571.5,280.0 L 568.9,280.0 L 566.3,280.0 L 563.8,280.0 L 561.2,279.9 L 558.6,279.9 L 556.1,279.9 L 553.5,279.9 L 550.9,279.9 L 548.4,279.8 L 545.8,279.8 L 543.2,279.8 L 540.6,279.7 L 538.1,279.7 L 535.5,279.6 L 532.9,279.5 L 530.4,279.4 L 527.8,279.3 L 525.2,279.1 L 522.7,279.0 L 520.1,278.8 L 517.5,278.6 L 514.9,278.3 L 512.4,278.0 L 509.8,277.7 L 507.2,277.3 L 504.7,276.8 L 502.1,276.3 L 499.5,275.7 L 496.9,275.1 L 494.4,274.3 L 491.8,273.5 L 489.2,272.6 L 486.7,271.5 L 484.1,270.4 L 481.5,269.1 L 479.0,267.7 L 476.4,266.2 L 473.8,264.5 L 471.2,262.6 L 468.7,260.6 L 466.1,258.4 L 463.5,256.0 L 461.0,253.5 L 458.4,250.7 L 455.8,247.8 L 453.3,244.7 L 450.7,241.4 L 448.1,237.9 L 445.5,234.2 L 443.0,230.3 L 440.4,226.2 L 437.8,222.0 L 435.3,217.6 L 432.7,213.0 L 430.1,208.3 L 427.6,203.4 L 425.0,198.5 L 422.4,193.4 L 419.8,188.2 L 417.3,182.9 L 414.7,177.5 L 412.1,172.2 L 409.6,166.7 L 407.0,161.3 L 404.4,155.9 L 401.8,150.5 L 399.3,145.1 L 396.7,139.8 L 394.1,134.6 L 391.6,129.4 L 389.0,124.4 L 386.4,119.5 L 383.9,114.7 L 381.3,110.1 L 378.7,105.7 L 376.1,101.4 L 373.6,97.4 L 371.0,93.6 L 368.4,90.0 L 365.9,86.6 L 363.3,83.5 L 360.7,80.6 L 358.2,78.0 L 355.6,75.7 L 353.0,73.6 L 350.4,71.8 L 347.9,70.2 L 345.3,68.9 L 342.7,67.9 L 340.2,67.0 L 337.6,66.4 L 335.0,66.0 L 332.4,65.8 L 329.9,65.8 L 327.3,65.9 L 324.7,66.1 L 322.2,66.5 L 319.6,66.9 L 317.0,67.5 L 314.5,68.1 L 311.9,68.7 L 309.3,69.5 L 306.7,70.3 L 304.2,71.1 L 301.6,72.1 L 299.0,73.1 L 296.5,74.3 L 293.9,75.6 L 291.3,77.1 L 288.8,78.7 L 286.2,80.6 L 283.6,82.8 L 281.0,85.3 L 278.5,88.1 L 275.9,91.3 L 273.3,94.9 L 270.8,98.8 L 268.2,103.2 L 265.6,107.9 L 263.1,113.1 L 260.5,118.6 L 257.9,124.5 L 255.3,130.8 L 252.8,137.3 L 250.2,144.1 L 247.6,151.1 L 245.1,158.3 L 242.5,165.6 L 239.9,172.9 L 237.3,180.2 L 234.8,187.4 L 232.2,194.5 L 229.6,201.5 L 227.1,208.2 L 224.5,214.7 L 221.9,220.8 L 219.4,226.7 L 216.8,232.2 L 214.2,237.4 L 211.6,242.2 L 209.1,246.6 L 206.5,250.7 L 203.9,254.4 L 201.4,257.8 L 198.8,260.8 L 196.2,263.5 L 193.7,265.9 L 191.1,268.0 L 188.5,269.8 L 185.9,271.4 L 183.4,272.8 L 180.8,274.0 L 178.2,275.1 L 175.7,275.9 L 173.1,276.7 L 170.5,277.3 L 168.0,277.8 L 165.4,278.2 L 162.8,278.6 L 160.2,278.9 L 157.7,279.1 L 155.1,279.3 L 152.5,279.4 L 150.0,279.6 L 147.4,279.7 L 144.8,279.7 L 142.2,279.8 L 139.7,279.8 L 137.1,279.9 L 134.5,279.9 L 132.0,279.9 L 129.4,280.0 L 126.8,280.0 L 124.3,280.0 L 121.7,280.0 L 119.1,280.0 L 116.5,280.0 L 114.0,280.0 L 111.4,280.0 L 108.8,280.0 L 106.3,280.0 L 103.7,280.0 L 101.1,280.0 L 98.6,280.0 L 96.0,280.0 L 93.4,280.0 L 90.8,280.0 L 88.3,280.0 L 85.7,280.0 L 83.1,280.0 L 80.6,280.0 L 78.0,280.0 L 75.4,280.0 L 72.9,280.0 L 70.3,280.0 L 67.7,280.0 L 65.1,280.0 L 62.6,280.0 L 60.0,280.0 Z" fill="#CA6F1E" stroke="#E67E22" stroke-width="0.6" opacity="0.9"/>
  <path d="M 60.0,280.0 L 62.6,280.0 L 65.1,280.0 L 67.7,280.0 L 70.3,280.0 L 72.9,280.0 L 75.4,280.0 L 78.0,280.0 L 80.6,280.0 L 83.1,280.0 L 85.7,280.0 L 88.3,280.0 L 90.8,280.0 L 93.4,280.0 L 96.0,280.0 L 98.6,280.0 L 101.1,280.0 L 103.7,280.0 L 106.3,280.0 L 108.8,280.0 L 111.4,280.0 L 114.0,280.0 L 116.5,280.0 L 119.1,280.0 L 121.7,280.0 L 124.3,280.0 L 126.8,280.0 L 129.4,280.0 L 132.0,279.9 L 134.5,279.9 L 137.1,279.9 L 139.7,279.8 L 142.2,279.8 L 144.8,279.7 L 147.4,279.7 L 150.0,279.6 L 152.5,279.4 L 155.1,279.3 L 157.7,279.1 L 160.2,278.9 L 162.8,278.6 L 165.4,278.2 L 168.0,277.8 L 170.5,277.3 L 173.1,276.7 L 175.7,275.9 L 178.2,275.1 L 180.8,274.0 L 183.4,272.8 L 185.9,271.4 L 188.5,269.8 L 191.1,268.0 L 193.7,265.9 L 196.2,263.5 L 198.8,260.8 L 201.4,257.8 L 203.9,254.4 L 206.5,250.7 L 209.1,246.6 L 211.6,242.2 L 214.2,237.4 L 216.8,232.2 L 219.4,226.7 L 221.9,220.8 L 224.5,214.7 L 227.1,208.2 L 229.6,201.5 L 232.2,194.5 L 234.8,187.4 L 237.3,180.2 L 239.9,172.9 L 242.5,165.6 L 245.1,158.3 L 247.6,151.1 L 250.2,144.1 L 252.8,137.3 L 255.3,130.8 L 257.9,124.5 L 260.5,118.6 L 263.1,113.1 L 265.6,107.9 L 268.2,103.2 L 270.8,98.8 L 273.3,94.9 L 275.9,91.3 L 278.5,88.1 L 281.0,85.3 L 283.6,82.8 L 286.2,80.6 L 288.8,78.7 L 291.3,77.0 L 293.9,75.6 L 296.5,74.3 L 299.0,73.1 L 301.6,72.1 L 304.2,71.1 L 306.7,70.3 L 309.3,69.5 L 311.9,68.7 L 314.5,68.1 L 317.0,67.5 L 319.6,66.9 L 322.2,66.5 L 324.7,66.1 L 327.3,65.8 L 329.9,65.7 L 332.4,65.7 L 335.0,65.9 L 337.6,66.3 L 340.2,66.9 L 342.7,67.6 L 345.3,68.6 L 347.9,69.9 L 350.4,71.3 L 353.0,73.0 L 355.6,75.0 L 358.2,77.2 L 360.7,79.6 L 363.3,82.2 L 365.9,85.1 L 368.4,88.1 L 371.0,91.4 L 373.6,94.8 L 376.1,98.3 L 378.7,102.0 L 381.3,105.7 L 383.9,109.6 L 386.4,113.4 L 389.0,117.3 L 391.6,121.2 L 394.1,125.1 L 396.7,128.9 L 399.3,132.5 L 401.8,136.1 L 404.4,139.5 L 407.0,142.7 L 409.6,145.7 L 412.1,148.5 L 414.7,151.0 L 417.3,153.3 L 419.8,155.2 L 422.4,156.8 L 425.0,158.1 L 427.6,159.1 L 430.1,159.7 L 432.7,160.1 L 435.3,160.0 L 437.8,159.7 L 440.4,159.1 L 443.0,158.2 L 445.5,157.0 L 448.1,155.6 L 450.7,154.1 L 453.3,152.3 L 455.8,150.5 L 458.4,148.5 L 461.0,146.5 L 463.5,144.5 L 466.1,142.6 L 468.7,140.7 L 471.2,138.9 L 473.8,137.2 L 476.4,135.7 L 479.0,134.4 L 481.5,133.3 L 484.1,132.4 L 486.7,131.8 L 489.2,131.3 L 491.8,131.1 L 494.4,131.2 L 496.9,131.4 L 499.5,131.9 L 502.1,132.5 L 504.7,133.2 L 507.2,134.1 L 509.8,135.1 L 512.4,136.1 L 514.9,137.2 L 517.5,138.3 L 520.1,139.4 L 522.7,140.4 L 525.2,141.4 L 527.8,142.3 L 530.4,143.1 L 532.9,143.8 L 535.5,144.4 L 538.1,144.8 L 540.6,145.2 L 543.2,145.5 L 545.8,145.7 L 548.4,145.8 L 550.9,145.8 L 553.5,145.9 L 556.1,145.9 L 558.6,145.9 L 561.2,146.0 L 563.8,146.2 L 566.3,146.4 L 568.9,146.8 L 571.5,147.4 L 574.1,148.1 L 576.6,149.0 L 579.2,150.1 L 581.8,151.5 L 584.3,153.1 L 586.9,154.9 L 589.5,157.0 L 592.0,159.3 L 594.6,161.8 L 597.2,164.6 L 599.8,167.6 L 602.3,170.9 L 604.9,174.3 L 607.5,177.9 L 610.0,181.6 L 612.6,185.5 L 615.2,189.5 L 617.8,193.6 L 620.3,197.7 L 622.9,201.8 L 625.5,206.0 L 628.0,210.2 L 630.6,214.3 L 633.2,218.3 L 635.7,222.3 L 638.3,226.2 L 640.9,230.0 L 643.5,233.7 L 646.0,237.2 L 648.6,240.6 L 651.2,243.8 L 653.7,246.8 L 656.3,249.7 L 658.9,252.5 L 661.4,255.0 L 664.0,257.4 L 666.6,259.6 L 669.2,261.7 L 671.7,263.6 L 674.3,265.4 L 676.9,267.0 L 679.4,268.4 L 682.0,269.8 L 684.6,271.0 L 687.1,272.1 L 689.7,273.0 L 692.3,273.9 L 694.9,274.7 L 697.4,275.4 L 700.0,276.0 L 700.0,280.0 L 697.4,280.0 L 694.9,280.0 L 692.3,280.0 L 689.7,280.0 L 687.1,280.0 L 684.6,280.0 L 682.0,280.0 L 679.4,280.0 L 676.9,280.0 L 674.3,280.0 L 671.7,280.0 L 669.2,280.0 L 666.6,280.0 L 664.0,280.0 L 661.4,280.0 L 658.9,280.0 L 656.3,280.0 L 653.7,280.0 L 651.2,280.0 L 648.6,280.0 L 646.0,280.0 L 643.5,279.9 L 640.9,279.9 L 638.3,279.9 L 635.7,279.9 L 633.2,279.8 L 630.6,279.8 L 628.0,279.7 L 625.5,279.7 L 622.9,279.6 L 620.3,279.5 L 617.8,279.4 L 615.2,279.3 L 612.6,279.1 L 610.0,278.9 L 607.5,278.7 L 604.9,278.4 L 602.3,278.1 L 599.8,277.7 L 597.2,277.2 L 594.6,276.7 L 592.0,276.1 L 589.5,275.4 L 586.9,274.6 L 584.3,273.7 L 581.8,272.7 L 579.2,271.5 L 576.6,270.1 L 574.1,268.6 L 571.5,267.0 L 568.9,265.1 L 566.3,263.1 L 563.8,260.8 L 561.2,258.3 L 558.6,255.6 L 556.1,252.7 L 553.5,249.6 L 550.9,246.2 L 548.4,242.6 L 545.8,238.8 L 543.2,234.8 L 540.6,230.6 L 538.1,226.2 L 535.5,221.7 L 532.9,217.0 L 530.4,212.2 L 527.8,207.3 L 525.2,202.4 L 522.7,197.5 L 520.1,192.6 L 517.5,187.8 L 514.9,183.1 L 512.4,178.5 L 509.8,174.1 L 507.2,169.9 L 504.7,166.0 L 502.1,162.4 L 499.5,159.1 L 496.9,156.1 L 494.4,153.5 L 491.8,151.2 L 489.2,149.4 L 486.7,147.9 L 484.1,146.9 L 481.5,146.1 L 479.0,145.8 L 476.4,145.8 L 473.8,146.1 L 471.2,146.7 L 468.7,147.5 L 466.1,148.5 L 463.5,149.7 L 461.0,151.1 L 458.4,152.4 L 455.8,153.8 L 453.3,155.2 L 450.7,156.6 L 448.1,157.8 L 445.5,158.8 L 443.0,159.7 L 440.4,160.4 L 437.8,160.8 L 435.3,161.0 L 432.7,160.8 L 430.1,160.4 L 427.6,159.6 L 425.0,158.6 L 422.4,157.2 L 419.8,155.5 L 417.3,153.5 L 414.7,151.2 L 412.1,148.7 L 409.6,145.9 L 407.0,142.8 L 404.4,139.6 L 401.8,136.2 L 399.3,132.6 L 396.7,128.9 L 394.1,125.1 L 391.6,121.3 L 389.0,117.4 L 386.4,113.5 L 383.9,109.6 L 381.3,105.7 L 378.7,102.0 L 376.1,98.3 L 373.6,94.8 L 371.0,91.4 L 368.4,88.1 L 365.9,85.1 L 363.3,82.2 L 360.7,79.6 L 358.2,77.2 L 355.6,75.0 L 353.0,73.0 L 350.4,71.3 L 347.9,69.9 L 345.3,68.6 L 342.7,67.6 L 340.2,66.9 L 337.6,66.3 L 335.0,65.9 L 332.4,65.7 L 329.9,65.7 L 327.3,65.8 L 324.7,66.1 L 322.2,66.5 L 319.6,66.9 L 317.0,67.5 L 314.5,68.1 L 311.9,68.7 L 309.3,69.5 L 306.7,70.3 L 304.2,71.1 L 301.6,72.1 L 299.0,73.1 L 296.5,74.3 L 293.9,75.6 L 291.3,77.0 L 288.8,78.7 L 286.2,80.6 L 283.6,82.8 L 281.0,85.3 L 278.5,88.1 L 275.9,91.3 L 273.3,94.9 L 270.8,98.8 L 268.2,103.2 L 265.6,107.9 L 263.1,113.1 L 260.5,118.6 L 257.9,124.5 L 255.3,130.8 L 252.8,137.3 L 250.2,144.1 L 247.6,151.1 L 245.1,158.3 L 242.5,165.6 L 239.9,172.9 L 237.3,180.2 L 234.8,187.4 L 232.2,194.5 L 229.6,201.5 L 227.1,208.2 L 224.5,214.7 L 221.9,220.8 L 219.4,226.7 L 216.8,232.2 L 214.2,237.4 L 211.6,242.2 L 209.1,246.6 L 206.5,250.7 L 203.9,254.4 L 201.4,257.8 L 198.8,260.8 L 196.2,263.5 L 193.7,265.9 L 191.1,268.0 L 188.5,269.8 L 185.9,271.4 L 183.4,272.8 L 180.8,274.0 L 178.2,275.1 L 175.7,275.9 L 173.1,276.7 L 170.5,277.3 L 168.0,277.8 L 165.4,278.2 L 162.8,278.6 L 160.2,278.9 L 157.7,279.1 L 155.1,279.3 L 152.5,279.4 L 150.0,279.6 L 147.4,279.7 L 144.8,279.7 L 142.2,279.8 L 139.7,279.8 L 137.1,279.9 L 134.5,279.9 L 132.0,279.9 L 129.4,280.0 L 126.8,280.0 L 124.3,280.0 L 121.7,280.0 L 119.1,280.0 L 116.5,280.0 L 114.0,280.0 L 111.4,280.0 L 108.8,280.0 L 106.3,280.0 L 103.7,280.0 L 101.1,280.0 L 98.6,280.0 L 96.0,280.0 L 93.4,280.0 L 90.8,280.0 L 88.3,280.0 L 85.7,280.0 L 83.1,280.0 L 80.6,280.0 L 78.0,280.0 L 75.4,280.0 L 72.9,280.0 L 70.3,280.0 L 67.7,280.0 L 65.1,280.0 L 62.6,280.0 L 60.0,280.0 Z" fill="#922B21" stroke="#E74C3C" stroke-width="0.6" opacity="0.9"/>

  <rect x="80" y="32" width="8" height="8" fill="#1B4F72" stroke="#2E86C1" stroke-width="0.5" rx="1.5"/>
  <text x="92" y="39" font-size="7" fill="#5DADE2" font-family="'SF Mono', monospace">recv → disk write</text>
  <rect x="210" y="32" width="8" height="8" fill="#1E8449" stroke="#27AE60" stroke-width="0.5" rx="1.5"/>
  <text x="222" y="39" font-size="7" fill="#58D68D" font-family="'SF Mono', monospace">persist locally</text>
  <rect x="340" y="32" width="8" height="8" fill="#B7950B" stroke="#F1C40F" stroke-width="0.5" rx="1.5"/>
  <text x="352" y="39" font-size="7" fill="#F9E154" font-family="'SF Mono', monospace">replicate to remote</text>
  <rect x="470" y="32" width="8" height="8" fill="#CA6F1E" stroke="#E67E22" stroke-width="0.5" rx="1.5"/>
  <text x="482" y="39" font-size="7" fill="#F0B27A" font-family="'SF Mono', monospace">majority persist</text>
  <rect x="600" y="32" width="8" height="8" fill="#922B21" stroke="#E74C3C" stroke-width="0.5" rx="1.5"/>
  <text x="612" y="39" font-size="7" fill="#F1948A" font-family="'SF Mono', monospace">commit → apply</text>

</svg>
