<svg xmlns="http://www.w3.org/2000/svg" viewBox="40 15 670 275">
  <defs>
    <pattern id="dotpat" x="0" y="0" width="20" height="20" patternUnits="userSpaceOnUse">
      <circle cx="10" cy="10" r="0.4" fill="#555" opacity="0.12"/>
    </pattern>
  </defs>

  <rect x="40" y="15" width="670" height="275" fill="#0F1419" rx="6"/>
  <rect x="40" y="15" width="670" height="275" fill="url(#dotpat)" rx="6"/>

  <line x1="80" y1="240" x2="680" y2="240" stroke="#3A4550" stroke-width="0.8"/>

  <line x1="80.0" y1="240" x2="80.0" y2="40" stroke="#78909C" stroke-width="0.5" stroke-dasharray="3,5"/>
  <line x1="84.7" y1="240" x2="84.7" y2="40" stroke="#78909C" stroke-width="0.5" stroke-dasharray="3,5"/>
  <line x1="89.4" y1="240" x2="89.4" y2="40" stroke="#78909C" stroke-width="0.5" stroke-dasharray="3,5"/>
  <line x1="98.8" y1="240" x2="98.8" y2="40" stroke="#78909C" stroke-width="0.5" stroke-dasharray="3,5"/>
  <line x1="117.5" y1="240" x2="117.5" y2="40" stroke="#78909C" stroke-width="0.5" stroke-dasharray="3,5"/>
  <line x1="155.0" y1="240" x2="155.0" y2="40" stroke="#78909C" stroke-width="0.5" stroke-dasharray="3,5"/>
  <line x1="230.0" y1="240" x2="230.0" y2="40" stroke="#78909C" stroke-width="0.5" stroke-dasharray="3,5"/>
  <line x1="380.0" y1="240" x2="380.0" y2="40" stroke="#78909C" stroke-width="0.5" stroke-dasharray="3,5"/>
  <line x1="680.0" y1="240" x2="680.0" y2="40" stroke="#78909C" stroke-width="0.5" stroke-dasharray="3,5"/>

  <path d="M 81.4,233.4 L 82.6,216.3 L 83.8,196.4 L 85.0,177.5 L 86.2,161.1 L 87.4,147.5 L 88.6,136.4 L 89.8,127.6 L 91.0,120.8 L 92.2,115.7 L 93.4,112.0 L 94.6,109.4 L 95.8,107.8 L 97.0,106.9 L 98.2,106.8 L 99.4,107.1 L 100.6,107.9 L 101.8,109.0 L 103.0,110.4 L 104.2,112.1 L 105.4,113.9 L 106.6,115.8 L 107.8,117.9 L 109.0,120.1 L 110.2,122.3 L 111.4,124.5 L 112.6,126.8 L 113.8,129.1 L 115.0,131.4 L 116.2,133.7 L 117.4,136.0 L 118.6,138.2 L 119.8,140.4 L 121.0,142.6 L 122.2,144.8 L 123.4,146.9 L 124.6,149.0 L 125.8,151.0 L 127.0,153.0 L 128.2,155.0 L 129.4,156.9 L 130.6,158.7 L 131.8,160.5 L 133.0,162.3 L 134.2,164.1 L 135.4,165.8 L 136.6,167.4 L 137.8,169.0 L 139.0,170.6 L 140.2,172.1 L 141.4,173.6 L 142.6,175.1 L 143.8,176.5 L 145.0,177.9 L 146.2,179.2 L 147.4,180.5 L 148.6,181.8 L 149.8,183.0 L 151.0,184.2 L 152.2,185.4 L 153.4,186.6 L 154.6,187.7 L 155.8,188.8 L 157.0,189.9 L 158.2,190.9 L 159.4,191.9 L 160.6,192.9 L 161.8,193.9 L 163.0,194.8 L 164.2,195.7 L 165.4,196.6 L 166.6,197.5 L 167.8,198.3 L 169.0,199.1 L 170.2,199.9 L 171.4,200.7 L 172.6,201.5 L 173.8,202.2 L 175.0,203.0 L 176.2,203.7 L 177.4,204.4 L 178.6,205.0 L 179.8,205.7 L 181.0,206.4 L 182.2,207.0 L 183.4,207.6 L 184.6,208.2 L 185.8,208.8 L 187.0,209.4 L 188.2,209.9 L 189.4,210.5 L 190.6,211.0 L 191.8,211.5 L 193.0,212.0 L 194.2,212.5 L 195.4,213.0 L 196.6,213.5 L 197.8,214.0 L 199.0,214.4 L 200.2,214.9 L 201.4,215.3 L 202.6,215.7 L 203.8,216.1 L 205.0,216.6 L 206.2,217.0 L 207.4,217.3 L 208.6,217.7 L 209.8,218.1 L 211.0,218.5 L 212.2,218.8 L 213.4,219.2 L 214.6,219.5 L 215.8,219.9 L 217.0,220.2 L 218.2,220.5 L 219.4,220.8 L 220.6,221.1 L 221.8,221.4 L 223.0,221.7 L 224.2,222.0 L 225.4,222.3 L 226.6,222.6 L 227.8,222.9 L 229.0,223.1 L 230.2,223.4 L 231.4,223.6 L 232.6,223.9 L 233.8,224.1 L 235.0,224.4 L 236.2,224.6 L 237.4,224.9 L 238.6,225.1 L 239.8,225.3 L 241.0,225.5 L 242.2,225.8 L 243.4,226.0 L 244.6,226.2 L 245.7,226.4 L 246.9,226.6 L 248.1,226.8 L 249.3,227.0 L 250.5,227.2 L 251.7,227.3 L 252.9,227.5 L 254.1,227.7 L 255.3,227.9 L 256.5,228.1 L 257.7,228.2 L 258.9,228.4 L 260.1,228.6 L 261.3,228.7 L 262.5,228.9 L 263.7,229.0 L 264.9,229.2 L 266.1,229.3 L 267.3,229.5 L 268.5,229.6 L 269.7,229.8 L 270.9,229.9 L 272.1,230.0 L 273.3,230.2 L 274.5,230.3 L 275.7,230.4 L 276.9,230.6 L 278.1,230.7 L 279.3,230.8 L 280.5,230.9 L 281.7,231.1 L 282.9,231.2 L 284.1,231.3 L 285.3,231.4 L 286.5,231.5 L 287.7,231.6 L 288.9,231.7 L 290.1,231.8 L 291.3,232.0 L 292.5,232.1 L 293.7,232.2 L 294.9,232.3 L 296.1,232.4 L 297.3,232.5 L 298.5,232.5 L 299.7,232.6 L 300.9,232.7 L 302.1,232.8 L 303.3,232.9 L 304.5,233.0 L 305.7,233.1 L 306.9,233.2 L 308.1,233.3 L 309.3,233.3 L 310.5,233.4 L 311.7,233.5 L 312.9,233.6 L 314.1,233.7 L 315.3,233.7 L 316.5,233.8 L 317.7,233.9 L 318.9,234.0 L 320.1,234.0 L 321.3,234.1 L 322.5,234.2 L 323.7,234.2 L 324.9,234.3 L 326.1,234.4 L 327.3,234.4 L 328.5,234.5 L 329.7,234.6 L 330.9,234.6 L 332.1,234.7 L 333.3,234.8 L 334.5,234.8 L 335.7,234.9 L 336.9,234.9 L 338.1,235.0 L 339.3,235.0 L 340.5,235.1 L 341.7,235.2 L 342.9,235.2 L 344.1,235.3 L 345.3,235.3 L 346.5,235.4 L 347.7,235.4 L 348.9,235.5 L 350.1,235.5 L 351.3,235.6 L 352.5,235.6 L 353.7,235.7 L 354.9,235.7 L 356.1,235.8 L 357.3,235.8 L 358.5,235.9 L 359.7,235.9 L 360.9,235.9 L 362.1,236.0 L 363.3,236.0 L 364.5,236.1 L 365.7,236.1 L 366.9,236.2 L 368.1,236.2 L 369.3,236.2 L 370.5,236.3 L 371.7,236.3 L 372.9,236.4 L 374.1,236.4 L 375.3,236.4 L 376.5,236.5 L 377.7,236.5 L 378.9,236.5 L 380.1,236.6 L 381.3,236.6 L 382.5,236.7 L 383.7,236.7 L 384.9,236.7 L 386.1,236.8 L 387.3,236.8 L 388.5,236.8 L 389.7,236.9 L 390.9,236.9 L 392.1,236.9 L 393.3,236.9 L 394.5,237.0 L 395.7,237.0 L 396.9,237.0 L 398.1,237.1 L 399.3,237.1 L 400.5,237.1 L 401.7,237.2 L 402.9,237.2 L 404.1,237.2 L 405.3,237.2 L 406.5,237.3 L 407.7,237.3 L 408.9,237.3 L 410.1,237.3 L 411.3,237.4 L 412.5,237.4 L 413.7,237.4 L 414.9,237.4 L 416.1,237.5 L 417.3,237.5 L 418.5,237.5 L 419.7,237.5 L 420.9,237.6 L 422.1,237.6 L 423.3,237.6 L 424.5,237.6 L 425.7,237.7 L 426.9,237.7 L 428.1,237.7 L 429.3,237.7 L 430.5,237.7 L 431.7,237.8 L 432.9,237.8 L 434.1,237.8 L 435.3,237.8 L 436.5,237.8 L 437.7,237.9 L 438.9,237.9 L 440.1,237.9 L 441.3,237.9 L 442.5,237.9 L 443.7,238.0 L 444.9,238.0 L 446.1,238.0 L 447.3,238.0 L 448.5,238.0 L 449.7,238.1 L 450.9,238.1 L 452.1,238.1 L 453.3,238.1 L 454.5,238.1 L 455.7,238.1 L 456.9,238.2 L 458.1,238.2 L 459.3,238.2 L 460.5,238.2 L 461.7,238.2 L 462.9,238.2 L 464.1,238.3 L 465.3,238.3 L 466.5,238.3 L 467.7,238.3 L 468.9,238.3 L 470.1,238.3 L 471.3,238.3 L 472.5,238.4 L 473.7,238.4 L 474.9,238.4 L 476.1,238.4 L 477.3,238.4 L 478.5,238.4 L 479.7,238.4 L 480.9,238.5 L 482.1,238.5 L 483.3,238.5 L 484.5,238.5 L 485.7,238.5 L 486.9,238.5 L 488.1,238.5 L 489.3,238.5 L 490.5,238.6 L 491.7,238.6 L 492.9,238.6 L 494.1,238.6 L 495.3,238.6 L 496.5,238.6 L 497.7,238.6 L 498.9,238.6 L 500.1,238.6 L 501.3,238.7 L 502.5,238.7 L 503.7,238.7 L 504.9,238.7 L 506.1,238.7 L 507.3,238.7 L 508.5,238.7 L 509.7,238.7 L 510.9,238.7 L 512.1,238.8 L 513.3,238.8 L 514.5,238.8 L 515.7,238.8 L 516.9,238.8 L 518.1,238.8 L 519.3,238.8 L 520.5,238.8 L 521.7,238.8 L 522.9,238.8 L 524.1,238.9 L 525.3,238.9 L 526.5,238.9 L 527.7,238.9 L 528.9,238.9 L 530.1,238.9 L 531.3,238.9 L 532.5,238.9 L 533.7,238.9 L 534.9,238.9 L 536.0,238.9 L 537.2,238.9 L 538.4,239.0 L 539.6,239.0 L 540.8,239.0 L 542.0,239.0 L 543.2,239.0 L 544.4,239.0 L 545.6,239.0 L 546.8,239.0 L 548.0,239.0 L 549.2,239.0 L 550.4,239.0 L 551.6,239.0 L 552.8,239.0 L 554.0,239.1 L 555.2,239.1 L 556.4,239.1 L 557.6,239.1 L 558.8,239.1 L 560.0,239.1 L 561.2,239.1 L 562.4,239.1 L 563.6,239.1 L 564.8,239.1 L 566.0,239.1 L 567.2,239.1 L 568.4,239.1 L 569.6,239.1 L 570.8,239.2 L 572.0,239.2 L 573.2,239.2 L 574.4,239.2 L 575.6,239.2 L 576.8,239.2 L 578.0,239.2 L 579.2,239.2 L 580.4,239.2 L 581.6,239.2 L 582.8,239.2 L 584.0,239.2 L 585.2,239.2 L 586.4,239.2 L 587.6,239.2 L 588.8,239.2 L 590.0,239.2 L 591.2,239.3 L 592.4,239.3 L 593.6,239.3 L 594.8,239.3 L 596.0,239.3 L 597.2,239.3 L 598.4,239.3 L 599.6,239.3 L 600.8,239.3 L 602.0,239.3 L 603.2,239.3 L 604.4,239.3 L 605.6,239.3 L 606.8,239.3 L 608.0,239.3 L 609.2,239.3 L 610.4,239.3 L 611.6,239.3 L 612.8,239.3 L 614.0,239.3 L 615.2,239.4 L 616.4,239.4 L 617.6,239.4 L 618.8,239.4 L 620.0,239.4 L 621.2,239.4 L 622.4,239.4 L 623.6,239.4 L 624.8,239.4 L 626.0,239.4 L 627.2,239.4 L 628.4,239.4 L 629.6,239.4 L 630.8,239.4 L 632.0,239.4 L 633.2,239.4 L 634.4,239.4 L 635.6,239.4 L 636.8,239.4 L 638.0,239.4 L 639.2,239.4 L 640.4,239.4 L 641.6,239.4 L 642.8,239.4 L 644.0,239.4 L 645.2,239.5 L 646.4,239.5 L 647.6,239.5 L 648.8,239.5 L 650.0,239.5 L 651.2,239.5 L 652.4,239.5 L 653.6,239.5 L 654.8,239.5 L 656.0,239.5 L 657.2,239.5 L 658.4,239.5 L 659.6,239.5 L 660.8,239.5 L 662.0,239.5 L 663.2,239.5 L 664.4,239.5 L 665.6,239.5 L 666.8,239.5 L 668.0,239.5 L 669.2,239.5 L 670.4,239.5 L 671.6,239.5 L 672.8,239.5 L 674.0,239.5 L 675.2,239.5 L 676.4,239.5 L 677.6,239.5 L 678.8,239.5 L 680.0,239.5" fill="none" stroke="#B0BEC5" stroke-width="1" stroke-dasharray="4,3" opacity="0.6"/>

  <circle cx="82.3" cy="237.5" r="2.5" fill="#5DADE2" opacity="0.85"/>
  <circle cx="82.3" cy="231.8" r="2.5" fill="#5DADE2" opacity="0.85"/>
  <circle cx="87.0" cy="237.5" r="2.5" fill="#58D68D" opacity="0.85"/>
  <circle cx="87.0" cy="231.8" r="2.5" fill="#58D68D" opacity="0.85"/>
  <circle cx="87.0" cy="226.0" r="2.5" fill="#58D68D" opacity="0.85"/>
  <circle cx="87.0" cy="220.2" r="2.5" fill="#58D68D" opacity="0.85"/>
  <circle cx="87.0" cy="214.5" r="2.5" fill="#58D68D" opacity="0.85"/>
  <circle cx="87.0" cy="208.8" r="2.5" fill="#58D68D" opacity="0.85"/>
  <circle cx="87.0" cy="203.0" r="2.5" fill="#58D68D" opacity="0.85"/>
  <circle cx="87.0" cy="197.2" r="2.5" fill="#58D68D" opacity="0.85"/>
  <circle cx="94.1" cy="237.5" r="2.5" fill="#82E0AA" opacity="0.85"/>
  <circle cx="94.1" cy="231.8" r="2.5" fill="#82E0AA" opacity="0.85"/>
  <circle cx="94.1" cy="226.0" r="2.5" fill="#82E0AA" opacity="0.85"/>
  <circle cx="94.1" cy="220.2" r="2.5" fill="#82E0AA" opacity="0.85"/>
  <circle cx="94.1" cy="214.5" r="2.5" fill="#82E0AA" opacity="0.85"/>
  <circle cx="94.1" cy="208.8" r="2.5" fill="#82E0AA" opacity="0.85"/>
  <circle cx="94.1" cy="203.0" r="2.5" fill="#82E0AA" opacity="0.85"/>
  <circle cx="94.1" cy="197.2" r="2.5" fill="#82E0AA" opacity="0.85"/>
  <circle cx="94.1" cy="191.5" r="2.5" fill="#82E0AA" opacity="0.85"/>
  <circle cx="94.1" cy="185.8" r="2.5" fill="#82E0AA" opacity="0.85"/>
  <circle cx="94.1" cy="180.0" r="2.5" fill="#82E0AA" opacity="0.85"/>
  <circle cx="94.1" cy="174.2" r="2.5" fill="#82E0AA" opacity="0.85"/>
  <circle cx="94.1" cy="168.5" r="2.5" fill="#82E0AA" opacity="0.85"/>
  <circle cx="94.1" cy="162.8" r="2.5" fill="#82E0AA" opacity="0.85"/>
  <circle cx="94.1" cy="157.0" r="2.5" fill="#82E0AA" opacity="0.85"/>
  <circle cx="94.1" cy="151.2" r="2.5" fill="#82E0AA" opacity="0.85"/>
  <circle cx="94.1" cy="145.5" r="2.5" fill="#82E0AA" opacity="0.85"/>
  <circle cx="94.1" cy="139.8" r="2.5" fill="#82E0AA" opacity="0.85"/>
  <circle cx="94.1" cy="134.0" r="2.5" fill="#82E0AA" opacity="0.85"/>
  <circle cx="94.1" cy="128.2" r="2.5" fill="#82E0AA" opacity="0.85"/>
  <circle cx="94.1" cy="122.5" r="2.5" fill="#82E0AA" opacity="0.85"/>
  <circle cx="94.1" cy="116.8" r="2.5" fill="#82E0AA" opacity="0.85"/>
  <circle cx="105.2" cy="237.5" r="2.5" fill="#F9E154" opacity="0.85"/>
  <circle cx="111.0" cy="237.5" r="2.5" fill="#F9E154" opacity="0.85"/>
  <circle cx="105.2" cy="231.8" r="2.5" fill="#F9E154" opacity="0.85"/>
  <circle cx="111.0" cy="231.8" r="2.5" fill="#F9E154" opacity="0.85"/>
  <circle cx="105.2" cy="226.0" r="2.5" fill="#F9E154" opacity="0.85"/>
  <circle cx="111.0" cy="226.0" r="2.5" fill="#F9E154" opacity="0.85"/>
  <circle cx="105.2" cy="220.2" r="2.5" fill="#F9E154" opacity="0.85"/>
  <circle cx="111.0" cy="220.2" r="2.5" fill="#F9E154" opacity="0.85"/>
  <circle cx="105.2" cy="214.5" r="2.5" fill="#F9E154" opacity="0.85"/>
  <circle cx="111.0" cy="214.5" r="2.5" fill="#F9E154" opacity="0.85"/>
  <circle cx="105.2" cy="208.8" r="2.5" fill="#F9E154" opacity="0.85"/>
  <circle cx="111.0" cy="208.8" r="2.5" fill="#F9E154" opacity="0.85"/>
  <circle cx="105.2" cy="203.0" r="2.5" fill="#F9E154" opacity="0.85"/>
  <circle cx="111.0" cy="203.0" r="2.5" fill="#F9E154" opacity="0.85"/>
  <circle cx="105.2" cy="197.2" r="2.5" fill="#F9E154" opacity="0.85"/>
  <circle cx="111.0" cy="197.2" r="2.5" fill="#F9E154" opacity="0.85"/>
  <circle cx="105.2" cy="191.5" r="2.5" fill="#F9E154" opacity="0.85"/>
  <circle cx="111.0" cy="191.5" r="2.5" fill="#F9E154" opacity="0.85"/>
  <circle cx="105.2" cy="185.8" r="2.5" fill="#F9E154" opacity="0.85"/>
  <circle cx="111.0" cy="185.8" r="2.5" fill="#F9E154" opacity="0.85"/>
  <circle cx="105.2" cy="180.0" r="2.5" fill="#F9E154" opacity="0.85"/>
  <circle cx="111.0" cy="180.0" r="2.5" fill="#F9E154" opacity="0.85"/>
  <circle cx="105.2" cy="174.2" r="2.5" fill="#F9E154" opacity="0.85"/>
  <circle cx="111.0" cy="174.2" r="2.5" fill="#F9E154" opacity="0.85"/>
  <circle cx="105.2" cy="168.5" r="2.5" fill="#F9E154" opacity="0.85"/>
  <circle cx="111.0" cy="168.5" r="2.5" fill="#F9E154" opacity="0.85"/>
  <circle cx="105.2" cy="162.8" r="2.5" fill="#F9E154" opacity="0.85"/>
  <circle cx="111.0" cy="162.8" r="2.5" fill="#F9E154" opacity="0.85"/>
  <circle cx="105.2" cy="157.0" r="2.5" fill="#F9E154" opacity="0.85"/>
  <circle cx="111.0" cy="157.0" r="2.5" fill="#F9E154" opacity="0.85"/>
  <circle cx="105.2" cy="151.2" r="2.5" fill="#F9E154" opacity="0.85"/>
  <circle cx="111.0" cy="151.2" r="2.5" fill="#F9E154" opacity="0.85"/>
  <circle cx="105.2" cy="145.5" r="2.5" fill="#F9E154" opacity="0.85"/>
  <circle cx="111.0" cy="145.5" r="2.5" fill="#F9E154" opacity="0.85"/>
  <circle cx="105.2" cy="139.8" r="2.5" fill="#F9E154" opacity="0.85"/>
  <circle cx="111.0" cy="139.8" r="2.5" fill="#F9E154" opacity="0.85"/>
  <circle cx="105.2" cy="134.0" r="2.5" fill="#F9E154" opacity="0.85"/>
  <circle cx="111.0" cy="134.0" r="2.5" fill="#F9E154" opacity="0.85"/>
  <circle cx="105.2" cy="128.2" r="2.5" fill="#F9E154" opacity="0.85"/>
  <circle cx="111.0" cy="128.2" r="2.5" fill="#F9E154" opacity="0.85"/>
  <circle cx="105.2" cy="122.5" r="2.5" fill="#F9E154" opacity="0.85"/>
  <circle cx="111.0" cy="122.5" r="2.5" fill="#F9E154" opacity="0.85"/>
  <circle cx="108.1" cy="116.8" r="2.5" fill="#F9E154" opacity="0.85"/>
  <circle cx="121.9" cy="237.5" r="2.5" fill="#F0B27A" opacity="0.85"/>
  <circle cx="127.6" cy="237.5" r="2.5" fill="#F0B27A" opacity="0.85"/>
  <circle cx="133.4" cy="237.5" r="2.5" fill="#F0B27A" opacity="0.85"/>
  <circle cx="139.1" cy="237.5" r="2.5" fill="#F0B27A" opacity="0.85"/>
  <circle cx="144.9" cy="237.5" r="2.5" fill="#F0B27A" opacity="0.85"/>
  <circle cx="150.6" cy="237.5" r="2.5" fill="#F0B27A" opacity="0.85"/>
  <circle cx="121.9" cy="231.8" r="2.5" fill="#F0B27A" opacity="0.85"/>
  <circle cx="127.6" cy="231.8" r="2.5" fill="#F0B27A" opacity="0.85"/>
  <circle cx="133.4" cy="231.8" r="2.5" fill="#F0B27A" opacity="0.85"/>
  <circle cx="139.1" cy="231.8" r="2.5" fill="#F0B27A" opacity="0.85"/>
  <circle cx="144.9" cy="231.8" r="2.5" fill="#F0B27A" opacity="0.85"/>
  <circle cx="150.6" cy="231.8" r="2.5" fill="#F0B27A" opacity="0.85"/>
  <circle cx="121.9" cy="226.0" r="2.5" fill="#F0B27A" opacity="0.85"/>
  <circle cx="127.6" cy="226.0" r="2.5" fill="#F0B27A" opacity="0.85"/>
  <circle cx="133.4" cy="226.0" r="2.5" fill="#F0B27A" opacity="0.85"/>
  <circle cx="139.1" cy="226.0" r="2.5" fill="#F0B27A" opacity="0.85"/>
  <circle cx="144.9" cy="226.0" r="2.5" fill="#F0B27A" opacity="0.85"/>
  <circle cx="150.6" cy="226.0" r="2.5" fill="#F0B27A" opacity="0.85"/>
  <circle cx="121.9" cy="220.2" r="2.5" fill="#F0B27A" opacity="0.85"/>
  <circle cx="127.6" cy="220.2" r="2.5" fill="#F0B27A" opacity="0.85"/>
  <circle cx="133.4" cy="220.2" r="2.5" fill="#F0B27A" opacity="0.85"/>
  <circle cx="139.1" cy="220.2" r="2.5" fill="#F0B27A" opacity="0.85"/>
  <circle cx="144.9" cy="220.2" r="2.5" fill="#F0B27A" opacity="0.85"/>
  <circle cx="150.6" cy="220.2" r="2.5" fill="#F0B27A" opacity="0.85"/>
  <circle cx="121.9" cy="214.5" r="2.5" fill="#F0B27A" opacity="0.85"/>
  <circle cx="127.6" cy="214.5" r="2.5" fill="#F0B27A" opacity="0.85"/>
  <circle cx="133.4" cy="214.5" r="2.5" fill="#F0B27A" opacity="0.85"/>
  <circle cx="139.1" cy="214.5" r="2.5" fill="#F0B27A" opacity="0.85"/>
  <circle cx="144.9" cy="214.5" r="2.5" fill="#F0B27A" opacity="0.85"/>
  <circle cx="150.6" cy="214.5" r="2.5" fill="#F0B27A" opacity="0.85"/>
  <circle cx="121.9" cy="208.8" r="2.5" fill="#F0B27A" opacity="0.85"/>
  <circle cx="127.6" cy="208.8" r="2.5" fill="#F0B27A" opacity="0.85"/>
  <circle cx="133.4" cy="208.8" r="2.5" fill="#F0B27A" opacity="0.85"/>
  <circle cx="139.1" cy="208.8" r="2.5" fill="#F0B27A" opacity="0.85"/>
  <circle cx="144.9" cy="208.8" r="2.5" fill="#F0B27A" opacity="0.85"/>
  <circle cx="150.6" cy="208.8" r="2.5" fill="#F0B27A" opacity="0.85"/>
  <circle cx="121.9" cy="203.0" r="2.5" fill="#F0B27A" opacity="0.85"/>
  <circle cx="127.6" cy="203.0" r="2.5" fill="#F0B27A" opacity="0.85"/>
  <circle cx="133.4" cy="203.0" r="2.5" fill="#F0B27A" opacity="0.85"/>
  <circle cx="139.1" cy="203.0" r="2.5" fill="#F0B27A" opacity="0.85"/>
  <circle cx="144.9" cy="203.0" r="2.5" fill="#F0B27A" opacity="0.85"/>
  <circle cx="150.6" cy="203.0" r="2.5" fill="#F0B27A" opacity="0.85"/>
  <circle cx="121.9" cy="197.2" r="2.5" fill="#F0B27A" opacity="0.85"/>
  <circle cx="127.6" cy="197.2" r="2.5" fill="#F0B27A" opacity="0.85"/>
  <circle cx="133.4" cy="197.2" r="2.5" fill="#F0B27A" opacity="0.85"/>
  <circle cx="139.1" cy="197.2" r="2.5" fill="#F0B27A" opacity="0.85"/>
  <circle cx="144.9" cy="197.2" r="2.5" fill="#F0B27A" opacity="0.85"/>
  <circle cx="150.6" cy="197.2" r="2.5" fill="#F0B27A" opacity="0.85"/>
  <circle cx="124.8" cy="191.5" r="2.5" fill="#F0B27A" opacity="0.85"/>
  <circle cx="130.5" cy="191.5" r="2.5" fill="#F0B27A" opacity="0.85"/>
  <circle cx="136.2" cy="191.5" r="2.5" fill="#F0B27A" opacity="0.85"/>
  <circle cx="142.0" cy="191.5" r="2.5" fill="#F0B27A" opacity="0.85"/>
  <circle cx="147.8" cy="191.5" r="2.5" fill="#F0B27A" opacity="0.85"/>
  <circle cx="160.9" cy="237.5" r="2.5" fill="#F1948A" opacity="0.85"/>
  <circle cx="166.6" cy="237.5" r="2.5" fill="#F1948A" opacity="0.85"/>
  <circle cx="172.4" cy="237.5" r="2.5" fill="#F1948A" opacity="0.85"/>
  <circle cx="178.1" cy="237.5" r="2.5" fill="#F1948A" opacity="0.85"/>
  <circle cx="183.9" cy="237.5" r="2.5" fill="#F1948A" opacity="0.85"/>
  <circle cx="189.6" cy="237.5" r="2.5" fill="#F1948A" opacity="0.85"/>
  <circle cx="195.4" cy="237.5" r="2.5" fill="#F1948A" opacity="0.85"/>
  <circle cx="201.1" cy="237.5" r="2.5" fill="#F1948A" opacity="0.85"/>
  <circle cx="206.9" cy="237.5" r="2.5" fill="#F1948A" opacity="0.85"/>
  <circle cx="212.6" cy="237.5" r="2.5" fill="#F1948A" opacity="0.85"/>
  <circle cx="218.4" cy="237.5" r="2.5" fill="#F1948A" opacity="0.85"/>
  <circle cx="224.1" cy="237.5" r="2.5" fill="#F1948A" opacity="0.85"/>
  <circle cx="160.9" cy="231.8" r="2.5" fill="#F1948A" opacity="0.85"/>
  <circle cx="166.6" cy="231.8" r="2.5" fill="#F1948A" opacity="0.85"/>
  <circle cx="172.4" cy="231.8" r="2.5" fill="#F1948A" opacity="0.85"/>
  <circle cx="178.1" cy="231.8" r="2.5" fill="#F1948A" opacity="0.85"/>
  <circle cx="183.9" cy="231.8" r="2.5" fill="#F1948A" opacity="0.85"/>
  <circle cx="189.6" cy="231.8" r="2.5" fill="#F1948A" opacity="0.85"/>
  <circle cx="195.4" cy="231.8" r="2.5" fill="#F1948A" opacity="0.85"/>
  <circle cx="201.1" cy="231.8" r="2.5" fill="#F1948A" opacity="0.85"/>
  <circle cx="206.9" cy="231.8" r="2.5" fill="#F1948A" opacity="0.85"/>
  <circle cx="212.6" cy="231.8" r="2.5" fill="#F1948A" opacity="0.85"/>
  <circle cx="218.4" cy="231.8" r="2.5" fill="#F1948A" opacity="0.85"/>
  <circle cx="224.1" cy="231.8" r="2.5" fill="#F1948A" opacity="0.85"/>
  <circle cx="160.9" cy="226.0" r="2.5" fill="#F1948A" opacity="0.85"/>
  <circle cx="166.6" cy="226.0" r="2.5" fill="#F1948A" opacity="0.85"/>
  <circle cx="172.4" cy="226.0" r="2.5" fill="#F1948A" opacity="0.85"/>
  <circle cx="178.1" cy="226.0" r="2.5" fill="#F1948A" opacity="0.85"/>
  <circle cx="183.9" cy="226.0" r="2.5" fill="#F1948A" opacity="0.85"/>
  <circle cx="189.6" cy="226.0" r="2.5" fill="#F1948A" opacity="0.85"/>
  <circle cx="195.4" cy="226.0" r="2.5" fill="#F1948A" opacity="0.85"/>
  <circle cx="201.1" cy="226.0" r="2.5" fill="#F1948A" opacity="0.85"/>
  <circle cx="206.9" cy="226.0" r="2.5" fill="#F1948A" opacity="0.85"/>
  <circle cx="212.6" cy="226.0" r="2.5" fill="#F1948A" opacity="0.85"/>
  <circle cx="218.4" cy="226.0" r="2.5" fill="#F1948A" opacity="0.85"/>
  <circle cx="224.1" cy="226.0" r="2.5" fill="#F1948A" opacity="0.85"/>
  <circle cx="175.2" cy="220.2" r="2.5" fill="#F1948A" opacity="0.85"/>
  <circle cx="181.0" cy="220.2" r="2.5" fill="#F1948A" opacity="0.85"/>
  <circle cx="186.8" cy="220.2" r="2.5" fill="#F1948A" opacity="0.85"/>
  <circle cx="192.5" cy="220.2" r="2.5" fill="#F1948A" opacity="0.85"/>
  <circle cx="198.2" cy="220.2" r="2.5" fill="#F1948A" opacity="0.85"/>
  <circle cx="204.0" cy="220.2" r="2.5" fill="#F1948A" opacity="0.85"/>
  <circle cx="209.8" cy="220.2" r="2.5" fill="#F1948A" opacity="0.85"/>
  <circle cx="244.6" cy="237.5" r="2.5" fill="#E74C3C" opacity="0.85"/>
  <circle cx="250.4" cy="237.5" r="2.5" fill="#E74C3C" opacity="0.85"/>
  <circle cx="256.1" cy="237.5" r="2.5" fill="#E74C3C" opacity="0.85"/>
  <circle cx="261.9" cy="237.5" r="2.5" fill="#E74C3C" opacity="0.85"/>
  <circle cx="267.6" cy="237.5" r="2.5" fill="#E74C3C" opacity="0.85"/>
  <circle cx="273.4" cy="237.5" r="2.5" fill="#E74C3C" opacity="0.85"/>
  <circle cx="279.1" cy="237.5" r="2.5" fill="#E74C3C" opacity="0.85"/>
  <circle cx="284.9" cy="237.5" r="2.5" fill="#E74C3C" opacity="0.85"/>
  <circle cx="290.6" cy="237.5" r="2.5" fill="#E74C3C" opacity="0.85"/>
  <circle cx="296.4" cy="237.5" r="2.5" fill="#E74C3C" opacity="0.85"/>
  <circle cx="302.1" cy="237.5" r="2.5" fill="#E74C3C" opacity="0.85"/>
  <circle cx="307.9" cy="237.5" r="2.5" fill="#E74C3C" opacity="0.85"/>
  <circle cx="313.6" cy="237.5" r="2.5" fill="#E74C3C" opacity="0.85"/>
  <circle cx="319.4" cy="237.5" r="2.5" fill="#E74C3C" opacity="0.85"/>
  <circle cx="325.1" cy="237.5" r="2.5" fill="#E74C3C" opacity="0.85"/>
  <circle cx="330.9" cy="237.5" r="2.5" fill="#E74C3C" opacity="0.85"/>
  <circle cx="336.6" cy="237.5" r="2.5" fill="#E74C3C" opacity="0.85"/>
  <circle cx="342.4" cy="237.5" r="2.5" fill="#E74C3C" opacity="0.85"/>
  <circle cx="348.1" cy="237.5" r="2.5" fill="#E74C3C" opacity="0.85"/>
  <circle cx="353.9" cy="237.5" r="2.5" fill="#E74C3C" opacity="0.85"/>
  <circle cx="359.6" cy="237.5" r="2.5" fill="#E74C3C" opacity="0.85"/>
  <circle cx="365.4" cy="237.5" r="2.5" fill="#E74C3C" opacity="0.85"/>
  <circle cx="509.9" cy="237.5" r="2.5" fill="#AF7AC5" opacity="0.85"/>
  <circle cx="515.6" cy="237.5" r="2.5" fill="#AF7AC5" opacity="0.85"/>
  <circle cx="521.4" cy="237.5" r="2.5" fill="#AF7AC5" opacity="0.85"/>
  <circle cx="527.1" cy="237.5" r="2.5" fill="#AF7AC5" opacity="0.85"/>
  <circle cx="532.9" cy="237.5" r="2.5" fill="#AF7AC5" opacity="0.85"/>
  <circle cx="538.6" cy="237.5" r="2.5" fill="#AF7AC5" opacity="0.85"/>
  <circle cx="544.4" cy="237.5" r="2.5" fill="#AF7AC5" opacity="0.85"/>
  <circle cx="550.1" cy="237.5" r="2.5" fill="#AF7AC5" opacity="0.85"/>

  <text x="80.0" y="255" text-anchor="middle" font-size="7" fill="#78909C" font-family="'SF Mono', monospace">0</text>
  <text x="84.7" y="255" text-anchor="middle" font-size="7" fill="#78909C" font-family="'SF Mono', monospace">1</text>
  <text x="89.4" y="255" text-anchor="middle" font-size="7" fill="#78909C" font-family="'SF Mono', monospace">2</text>
  <text x="98.8" y="255" text-anchor="middle" font-size="7" fill="#78909C" font-family="'SF Mono', monospace">4</text>
  <text x="117.5" y="255" text-anchor="middle" font-size="7" fill="#78909C" font-family="'SF Mono', monospace">8</text>
  <text x="155.0" y="255" text-anchor="middle" font-size="7" fill="#78909C" font-family="'SF Mono', monospace">16</text>
  <text x="230.0" y="255" text-anchor="middle" font-size="7" fill="#78909C" font-family="'SF Mono', monospace">32</text>
  <text x="380.0" y="255" text-anchor="middle" font-size="7" fill="#78909C" font-family="'SF Mono', monospace">64</text>
  <text x="680.0" y="255" text-anchor="middle" font-size="7" fill="#78909C" font-family="'SF Mono', monospace">128</text>

  <line x1="230.0" y1="58" x2="670.6" y2="58" stroke="#E74C3C" stroke-width="0.8"/>
  <text x="455.0" y="52" text-anchor="middle" font-size="9" fill="#E74C3C" font-family="'SF Mono', monospace" opacity="0.9">too coarse</text>

  <line x1="80.0" y1="58" x2="117.5" y2="58" stroke="#58D68D" stroke-width="0.8"/>
  <text x="98.8" y="52" text-anchor="middle" font-size="8" fill="#58D68D" font-family="'SF Mono', monospace" opacity="0.8">fine</text>

  <text x="55" y="140" text-anchor="middle" font-size="8" fill="#4A5A68" font-family="'SF Mono', monospace" transform="rotate(-90 55 140)">request count</text>

  <text x="380.0" y="268" text-anchor="middle" font-size="9" fill="#607D8B" font-family="'SF Mono', monospace">latency (linear scale)</text>

</svg>
