<svg xmlns="http://www.w3.org/2000/svg" viewBox="40 15 670 280">
  <defs>
    <pattern id="dotpat" x="0" y="0" width="20" height="20" patternUnits="userSpaceOnUse">
      <circle cx="10" cy="10" r="0.4" fill="#555" opacity="0.12"/>
    </pattern>
  </defs>
  <rect x="40" y="15" width="670" height="280" fill="#0F1419" rx="6"/>
  <rect x="40" y="15" width="670" height="280" fill="url(#dotpat)" rx="6"/>
  <line x1="80" y1="240" x2="680" y2="240" stroke="#3A4550" stroke-width="0.8"/>
  <line x1="80.0" y1="240" x2="80.0" y2="40" stroke="#546E7A" stroke-width="0.3" stroke-dasharray="2,4"/>
  <line x1="117.6" y1="240" x2="117.6" y2="40" stroke="#546E7A" stroke-width="0.3" stroke-dasharray="2,4"/>
  <line x1="159.1" y1="240" x2="159.1" y2="40" stroke="#546E7A" stroke-width="0.3" stroke-dasharray="2,4"/>
  <line x1="204.6" y1="240" x2="204.6" y2="40" stroke="#546E7A" stroke-width="0.3" stroke-dasharray="2,4"/>
  <line x1="254.7" y1="240" x2="254.7" y2="40" stroke="#546E7A" stroke-width="0.3" stroke-dasharray="2,4"/>
  <line x1="309.8" y1="240" x2="309.8" y2="40" stroke="#546E7A" stroke-width="0.3" stroke-dasharray="2,4"/>
  <line x1="370.5" y1="240" x2="370.5" y2="40" stroke="#546E7A" stroke-width="0.3" stroke-dasharray="2,4"/>
  <line x1="437.2" y1="240" x2="437.2" y2="40" stroke="#546E7A" stroke-width="0.3" stroke-dasharray="2,4"/>
  <line x1="510.5" y1="240" x2="510.5" y2="40" stroke="#546E7A" stroke-width="0.3" stroke-dasharray="2,4"/>
  <line x1="591.2" y1="240" x2="591.2" y2="40" stroke="#546E7A" stroke-width="0.3" stroke-dasharray="2,4"/>
  <line x1="680.0" y1="240" x2="680.0" y2="40" stroke="#546E7A" stroke-width="0.3" stroke-dasharray="2,4"/>

  <path d="M 87.5,240.0 L 89.0,240.0 L 90.5,240.0 L 92.0,240.0 L 93.5,240.0 L 95.0,240.0 L 96.4,240.0 L 97.9,240.0 L 99.4,240.0 L 100.9,239.9 L 102.4,239.9 L 103.9,239.8 L 105.3,239.7 L 106.8,239.6 L 108.3,239.5 L 109.8,239.2 L 111.3,239.0 L 112.8,238.6 L 114.3,238.2 L 115.7,237.7 L 117.2,237.2 L 118.7,236.5 L 120.2,235.7 L 121.7,234.9 L 123.2,233.9 L 124.7,232.8 L 126.1,231.6 L 127.6,230.3 L 129.1,228.9 L 130.6,227.4 L 132.1,225.8 L 133.6,224.1 L 135.0,222.2 L 136.5,220.3 L 138.0,218.3 L 139.5,216.2 L 141.0,214.0 L 142.5,211.8 L 144.0,209.4 L 145.4,207.1 L 146.9,204.6 L 148.4,202.1 L 149.9,199.6 L 151.4,197.1 L 152.9,194.5 L 154.3,191.9 L 155.8,189.3 L 157.3,186.6 L 158.8,184.0 L 160.3,181.4 L 161.8,178.8 L 163.3,176.2 L 164.7,173.6 L 166.2,171.1 L 167.7,168.6 L 169.2,166.1 L 170.7,163.7 L 172.2,161.3 L 173.7,159.0 L 175.1,156.7 L 176.6,154.5 L 178.1,152.4 L 179.6,150.3 L 181.1,148.2 L 182.6,146.3 L 184.0,144.4 L 185.5,142.5 L 187.0,140.7 L 188.5,139.0 L 190.0,137.4 L 191.5,135.9 L 193.0,134.4 L 194.4,133.0 L 195.9,131.6 L 197.4,130.4 L 198.9,129.2 L 200.4,128.0 L 201.9,127.0 L 203.4,126.0 L 204.8,125.1 L 206.3,124.2 L 207.8,123.5 L 209.3,122.8 L 210.8,122.1 L 212.3,121.5 L 213.7,121.0 L 215.2,120.6 L 216.7,120.2 L 218.2,119.8 L 219.7,119.6 L 221.2,119.3 L 222.7,119.2 L 224.1,119.1 L 225.6,119.0 L 227.1,119.0 L 228.6,119.0 L 230.1,119.1 L 231.6,119.3 L 233.0,119.4 L 234.5,119.7 L 236.0,119.9 L 237.5,120.2 L 239.0,120.6 L 240.5,121.0 L 242.0,121.4 L 243.4,121.8 L 244.9,122.3 L 246.4,122.8 L 247.9,123.4 L 249.4,123.9 L 250.9,124.5 L 252.4,125.2 L 253.8,125.8 L 255.3,126.5 L 256.8,127.2 L 258.3,127.9 L 259.8,128.7 L 261.3,129.4 L 262.7,130.2 L 264.2,131.0 L 265.7,131.8 L 267.2,132.6 L 268.7,133.5 L 270.2,134.3 L 271.7,135.2 L 273.1,136.1 L 274.6,137.0 L 276.1,137.8 L 277.6,138.8 L 279.1,139.7 L 280.6,140.6 L 282.0,141.5 L 283.5,142.4 L 285.0,143.4 L 286.5,144.3 L 288.0,145.3 L 289.5,146.2 L 291.0,147.2 L 292.4,148.1 L 293.9,149.1 L 295.4,150.0 L 296.9,151.0 L 298.4,151.9 L 299.9,152.9 L 301.4,153.8 L 302.8,154.8 L 304.3,155.7 L 305.8,156.7 L 307.3,157.6 L 308.8,158.6 L 310.3,159.5 L 311.7,160.5 L 313.2,161.4 L 314.7,162.3 L 316.2,163.2 L 317.7,164.2 L 319.2,165.1 L 320.7,166.0 L 322.1,166.9 L 323.6,167.8 L 325.1,168.7 L 326.6,169.6 L 328.1,170.4 L 329.6,171.3 L 331.1,172.2 L 332.5,173.0 L 334.0,173.9 L 335.5,174.7 L 337.0,175.6 L 338.5,176.4 L 340.0,177.2 L 341.4,178.0 L 342.9,178.9 L 344.4,179.7 L 345.9,180.5 L 347.4,181.2 L 348.9,182.0 L 350.4,182.8 L 351.8,183.6 L 353.3,184.3 L 354.8,185.1 L 356.3,185.8 L 357.8,186.5 L 359.3,187.3 L 360.7,188.0 L 362.2,188.7 L 363.7,189.4 L 365.2,190.1 L 366.7,190.8 L 368.2,191.5 L 369.7,192.1 L 371.1,192.8 L 372.6,193.5 L 374.1,194.1 L 375.6,194.8 L 377.1,195.4 L 378.6,196.0 L 380.1,196.6 L 381.5,197.2 L 383.0,197.8 L 384.5,198.4 L 386.0,199.0 L 387.5,199.6 L 389.0,200.2 L 390.4,200.8 L 391.9,201.3 L 393.4,201.9 L 394.9,202.4 L 396.4,203.0 L 397.9,203.5 L 399.4,204.0 L 400.8,204.5 L 402.3,205.0 L 403.8,205.5 L 405.3,206.0 L 406.8,206.5 L 408.3,207.0 L 409.8,207.5 L 411.2,208.0 L 412.7,208.4 L 414.2,208.9 L 415.7,209.3 L 417.2,209.8 L 418.7,210.2 L 420.1,210.7 L 421.6,211.1 L 423.1,211.5 L 424.6,211.9 L 426.1,212.3 L 427.6,212.7 L 429.1,213.1 L 430.5,213.5 L 432.0,213.9 L 433.5,214.3 L 435.0,214.7 L 436.5,215.1 L 438.0,215.4 L 439.4,215.8 L 440.9,216.1 L 442.4,216.5 L 443.9,216.8 L 445.4,217.2 L 446.9,217.5 L 448.4,217.8 L 449.8,218.2 L 451.3,218.5 L 452.8,218.8 L 454.3,219.1 L 455.8,219.4 L 457.3,219.7 L 458.8,220.0 L 460.2,220.3 L 461.7,220.6 L 463.2,220.9 L 464.7,221.2 L 466.2,221.5 L 467.7,221.7 L 469.1,222.0 L 470.6,222.3 L 472.1,222.5 L 473.6,222.8 L 475.1,223.1 L 476.6,223.3 L 478.1,223.6 L 479.5,223.8 L 481.0,224.0 L 482.5,224.3 L 484.0,224.5 L 485.5,224.7 L 487.0,225.0 L 488.4,225.2 L 489.9,225.4 L 491.4,225.6 L 492.9,225.8 L 494.4,226.0 L 495.9,226.2 L 497.4,226.4 L 498.8,226.6 L 500.3,226.8 L 501.8,227.0 L 503.3,227.2 L 504.8,227.4 L 506.3,227.6 L 507.8,227.8 L 509.2,228.0 L 510.7,228.1 L 512.2,228.3 L 513.7,228.5 L 515.2,228.7 L 516.7,228.8 L 518.1,229.0 L 519.6,229.2 L 521.1,229.3 L 522.6,229.5 L 524.1,229.6 L 525.6,229.8 L 527.1,229.9 L 528.5,230.1 L 530.0,230.2 L 531.5,230.4 L 533.0,230.5 L 534.5,230.6 L 536.0,230.8 L 537.5,230.9 L 538.9,231.1 L 540.4,231.2 L 541.9,231.3 L 543.4,231.4 L 544.9,231.6 L 546.4,231.7 L 547.8,231.8 L 549.3,231.9 L 550.8,232.1 L 552.3,232.2 L 553.8,232.3 L 555.3,232.4 L 556.8,232.5 L 558.2,232.6 L 559.7,232.7 L 561.2,232.8 L 562.7,232.9 L 564.2,233.0 L 565.7,233.1 L 567.1,233.2 L 568.6,233.3 L 570.1,233.4 L 571.6,233.5 L 573.1,233.6 L 574.6,233.7 L 576.1,233.8 L 577.5,233.9 L 579.0,234.0 L 580.5,234.1 L 582.0,234.2 L 583.5,234.2 L 585.0,234.3 L 586.5,234.4 L 587.9,234.5 L 589.4,234.6 L 590.9,234.6 L 592.4,234.7 L 593.9,234.8 L 595.4,234.9 L 596.8,234.9 L 598.3,235.0 L 599.8,235.1 L 601.3,235.2 L 602.8,235.2 L 604.3,235.3 L 605.8,235.4 L 607.2,235.4 L 608.7,235.5 L 610.2,235.6 L 611.7,235.6 L 613.2,235.7 L 614.7,235.7 L 616.1,235.8 L 617.6,235.9 L 619.1,235.9 L 620.6,236.0 L 622.1,236.0 L 623.6,236.1 L 625.1,236.2 L 626.5,236.2 L 628.0,236.3 L 629.5,236.3 L 631.0,236.4 L 632.5,236.4 L 634.0,236.5 L 635.5,236.5 L 636.9,236.6 L 638.4,236.6 L 639.9,236.7 L 641.4,236.7 L 642.9,236.8 L 644.4,236.8 L 645.8,236.8 L 647.3,236.9 L 648.8,236.9 L 650.3,237.0 L 651.8,237.0 L 653.3,237.1 L 654.8,237.1 L 656.2,237.1 L 657.7,237.2 L 659.2,237.2 L 660.7,237.3 L 662.2,237.3 L 663.7,237.3 L 665.2,237.4 L 666.6,237.4 L 668.1,237.5 L 669.6,237.5 L 671.1,237.5 L 672.6,237.6 L 674.1,237.6 L 675.5,237.6 L 677.0,237.7 L 678.5,237.7 L 680.0,237.7" fill="none" stroke="#B0BEC5" stroke-width="1" stroke-dasharray="4,3" opacity="0.6"/>
  <circle cx="124.0" cy="237.0" r="3.0" fill="#58D68D" opacity="0.85"/>
  <circle cx="131.2" cy="237.0" r="3.0" fill="#58D68D" opacity="0.85"/>
  <circle cx="138.4" cy="237.0" r="3.0" fill="#58D68D" opacity="0.85"/>
  <circle cx="145.6" cy="237.0" r="3.0" fill="#58D68D" opacity="0.85"/>
  <circle cx="152.8" cy="237.0" r="3.0" fill="#58D68D" opacity="0.85"/>
  <circle cx="124.0" cy="229.8" r="3.0" fill="#58D68D" opacity="0.85"/>
  <circle cx="131.2" cy="229.8" r="3.0" fill="#58D68D" opacity="0.85"/>
  <circle cx="138.4" cy="229.8" r="3.0" fill="#58D68D" opacity="0.85"/>
  <circle cx="145.6" cy="229.8" r="3.0" fill="#58D68D" opacity="0.85"/>
  <circle cx="152.8" cy="229.8" r="3.0" fill="#58D68D" opacity="0.85"/>
  <circle cx="124.0" cy="222.6" r="3.0" fill="#58D68D" opacity="0.85"/>
  <circle cx="131.2" cy="222.6" r="3.0" fill="#58D68D" opacity="0.85"/>
  <circle cx="138.4" cy="222.6" r="3.0" fill="#58D68D" opacity="0.85"/>
  <circle cx="145.6" cy="222.6" r="3.0" fill="#58D68D" opacity="0.85"/>
  <circle cx="152.8" cy="222.6" r="3.0" fill="#58D68D" opacity="0.85"/>
  <circle cx="134.8" cy="215.4" r="3.0" fill="#58D68D" opacity="0.85"/>
  <circle cx="142.0" cy="215.4" r="3.0" fill="#58D68D" opacity="0.85"/>
  <circle cx="163.8" cy="237.0" r="3.0" fill="#82E0AA" opacity="0.85"/>
  <circle cx="171.0" cy="237.0" r="3.0" fill="#82E0AA" opacity="0.85"/>
  <circle cx="178.2" cy="237.0" r="3.0" fill="#82E0AA" opacity="0.85"/>
  <circle cx="185.4" cy="237.0" r="3.0" fill="#82E0AA" opacity="0.85"/>
  <circle cx="192.6" cy="237.0" r="3.0" fill="#82E0AA" opacity="0.85"/>
  <circle cx="199.8" cy="237.0" r="3.0" fill="#82E0AA" opacity="0.85"/>
  <circle cx="163.8" cy="229.8" r="3.0" fill="#82E0AA" opacity="0.85"/>
  <circle cx="171.0" cy="229.8" r="3.0" fill="#82E0AA" opacity="0.85"/>
  <circle cx="178.2" cy="229.8" r="3.0" fill="#82E0AA" opacity="0.85"/>
  <circle cx="185.4" cy="229.8" r="3.0" fill="#82E0AA" opacity="0.85"/>
  <circle cx="192.6" cy="229.8" r="3.0" fill="#82E0AA" opacity="0.85"/>
  <circle cx="199.8" cy="229.8" r="3.0" fill="#82E0AA" opacity="0.85"/>
  <circle cx="163.8" cy="222.6" r="3.0" fill="#82E0AA" opacity="0.85"/>
  <circle cx="171.0" cy="222.6" r="3.0" fill="#82E0AA" opacity="0.85"/>
  <circle cx="178.2" cy="222.6" r="3.0" fill="#82E0AA" opacity="0.85"/>
  <circle cx="185.4" cy="222.6" r="3.0" fill="#82E0AA" opacity="0.85"/>
  <circle cx="192.6" cy="222.6" r="3.0" fill="#82E0AA" opacity="0.85"/>
  <circle cx="199.8" cy="222.6" r="3.0" fill="#82E0AA" opacity="0.85"/>
  <circle cx="163.8" cy="215.4" r="3.0" fill="#82E0AA" opacity="0.85"/>
  <circle cx="171.0" cy="215.4" r="3.0" fill="#82E0AA" opacity="0.85"/>
  <circle cx="178.2" cy="215.4" r="3.0" fill="#82E0AA" opacity="0.85"/>
  <circle cx="185.4" cy="215.4" r="3.0" fill="#82E0AA" opacity="0.85"/>
  <circle cx="192.6" cy="215.4" r="3.0" fill="#82E0AA" opacity="0.85"/>
  <circle cx="199.8" cy="215.4" r="3.0" fill="#82E0AA" opacity="0.85"/>
  <circle cx="163.8" cy="208.2" r="3.0" fill="#82E0AA" opacity="0.85"/>
  <circle cx="171.0" cy="208.2" r="3.0" fill="#82E0AA" opacity="0.85"/>
  <circle cx="178.2" cy="208.2" r="3.0" fill="#82E0AA" opacity="0.85"/>
  <circle cx="185.4" cy="208.2" r="3.0" fill="#82E0AA" opacity="0.85"/>
  <circle cx="192.6" cy="208.2" r="3.0" fill="#82E0AA" opacity="0.85"/>
  <circle cx="199.8" cy="208.2" r="3.0" fill="#82E0AA" opacity="0.85"/>
  <circle cx="163.8" cy="201.0" r="3.0" fill="#82E0AA" opacity="0.85"/>
  <circle cx="171.0" cy="201.0" r="3.0" fill="#82E0AA" opacity="0.85"/>
  <circle cx="178.2" cy="201.0" r="3.0" fill="#82E0AA" opacity="0.85"/>
  <circle cx="185.4" cy="201.0" r="3.0" fill="#82E0AA" opacity="0.85"/>
  <circle cx="192.6" cy="201.0" r="3.0" fill="#82E0AA" opacity="0.85"/>
  <circle cx="199.8" cy="201.0" r="3.0" fill="#82E0AA" opacity="0.85"/>
  <circle cx="163.8" cy="193.8" r="3.0" fill="#82E0AA" opacity="0.85"/>
  <circle cx="171.0" cy="193.8" r="3.0" fill="#82E0AA" opacity="0.85"/>
  <circle cx="178.2" cy="193.8" r="3.0" fill="#82E0AA" opacity="0.85"/>
  <circle cx="185.4" cy="193.8" r="3.0" fill="#82E0AA" opacity="0.85"/>
  <circle cx="192.6" cy="193.8" r="3.0" fill="#82E0AA" opacity="0.85"/>
  <circle cx="199.8" cy="193.8" r="3.0" fill="#82E0AA" opacity="0.85"/>
  <circle cx="163.8" cy="186.6" r="3.0" fill="#82E0AA" opacity="0.85"/>
  <circle cx="171.0" cy="186.6" r="3.0" fill="#82E0AA" opacity="0.85"/>
  <circle cx="178.2" cy="186.6" r="3.0" fill="#82E0AA" opacity="0.85"/>
  <circle cx="185.4" cy="186.6" r="3.0" fill="#82E0AA" opacity="0.85"/>
  <circle cx="192.6" cy="186.6" r="3.0" fill="#82E0AA" opacity="0.85"/>
  <circle cx="199.8" cy="186.6" r="3.0" fill="#82E0AA" opacity="0.85"/>
  <circle cx="163.8" cy="179.4" r="3.0" fill="#82E0AA" opacity="0.85"/>
  <circle cx="171.0" cy="179.4" r="3.0" fill="#82E0AA" opacity="0.85"/>
  <circle cx="178.2" cy="179.4" r="3.0" fill="#82E0AA" opacity="0.85"/>
  <circle cx="185.4" cy="179.4" r="3.0" fill="#82E0AA" opacity="0.85"/>
  <circle cx="192.6" cy="179.4" r="3.0" fill="#82E0AA" opacity="0.85"/>
  <circle cx="199.8" cy="179.4" r="3.0" fill="#82E0AA" opacity="0.85"/>
  <circle cx="163.8" cy="172.2" r="3.0" fill="#82E0AA" opacity="0.85"/>
  <circle cx="171.0" cy="172.2" r="3.0" fill="#82E0AA" opacity="0.85"/>
  <circle cx="178.2" cy="172.2" r="3.0" fill="#82E0AA" opacity="0.85"/>
  <circle cx="185.4" cy="172.2" r="3.0" fill="#82E0AA" opacity="0.85"/>
  <circle cx="192.6" cy="172.2" r="3.0" fill="#82E0AA" opacity="0.85"/>
  <circle cx="199.8" cy="172.2" r="3.0" fill="#82E0AA" opacity="0.85"/>
  <circle cx="163.8" cy="165.0" r="3.0" fill="#82E0AA" opacity="0.85"/>
  <circle cx="171.0" cy="165.0" r="3.0" fill="#82E0AA" opacity="0.85"/>
  <circle cx="178.2" cy="165.0" r="3.0" fill="#82E0AA" opacity="0.85"/>
  <circle cx="185.4" cy="165.0" r="3.0" fill="#82E0AA" opacity="0.85"/>
  <circle cx="192.6" cy="165.0" r="3.0" fill="#82E0AA" opacity="0.85"/>
  <circle cx="199.8" cy="165.0" r="3.0" fill="#82E0AA" opacity="0.85"/>
  <circle cx="211.7" cy="237.0" r="3.0" fill="#F9E154" opacity="0.85"/>
  <circle cx="218.9" cy="237.0" r="3.0" fill="#F9E154" opacity="0.85"/>
  <circle cx="226.1" cy="237.0" r="3.0" fill="#F9E154" opacity="0.85"/>
  <circle cx="233.3" cy="237.0" r="3.0" fill="#F9E154" opacity="0.85"/>
  <circle cx="240.5" cy="237.0" r="3.0" fill="#F9E154" opacity="0.85"/>
  <circle cx="247.7" cy="237.0" r="3.0" fill="#F9E154" opacity="0.85"/>
  <circle cx="211.7" cy="229.8" r="3.0" fill="#F9E154" opacity="0.85"/>
  <circle cx="218.9" cy="229.8" r="3.0" fill="#F9E154" opacity="0.85"/>
  <circle cx="226.1" cy="229.8" r="3.0" fill="#F9E154" opacity="0.85"/>
  <circle cx="233.3" cy="229.8" r="3.0" fill="#F9E154" opacity="0.85"/>
  <circle cx="240.5" cy="229.8" r="3.0" fill="#F9E154" opacity="0.85"/>
  <circle cx="247.7" cy="229.8" r="3.0" fill="#F9E154" opacity="0.85"/>
  <circle cx="211.7" cy="222.6" r="3.0" fill="#F9E154" opacity="0.85"/>
  <circle cx="218.9" cy="222.6" r="3.0" fill="#F9E154" opacity="0.85"/>
  <circle cx="226.1" cy="222.6" r="3.0" fill="#F9E154" opacity="0.85"/>
  <circle cx="233.3" cy="222.6" r="3.0" fill="#F9E154" opacity="0.85"/>
  <circle cx="240.5" cy="222.6" r="3.0" fill="#F9E154" opacity="0.85"/>
  <circle cx="247.7" cy="222.6" r="3.0" fill="#F9E154" opacity="0.85"/>
  <circle cx="211.7" cy="215.4" r="3.0" fill="#F9E154" opacity="0.85"/>
  <circle cx="218.9" cy="215.4" r="3.0" fill="#F9E154" opacity="0.85"/>
  <circle cx="226.1" cy="215.4" r="3.0" fill="#F9E154" opacity="0.85"/>
  <circle cx="233.3" cy="215.4" r="3.0" fill="#F9E154" opacity="0.85"/>
  <circle cx="240.5" cy="215.4" r="3.0" fill="#F9E154" opacity="0.85"/>
  <circle cx="247.7" cy="215.4" r="3.0" fill="#F9E154" opacity="0.85"/>
  <circle cx="211.7" cy="208.2" r="3.0" fill="#F9E154" opacity="0.85"/>
  <circle cx="218.9" cy="208.2" r="3.0" fill="#F9E154" opacity="0.85"/>
  <circle cx="226.1" cy="208.2" r="3.0" fill="#F9E154" opacity="0.85"/>
  <circle cx="233.3" cy="208.2" r="3.0" fill="#F9E154" opacity="0.85"/>
  <circle cx="240.5" cy="208.2" r="3.0" fill="#F9E154" opacity="0.85"/>
  <circle cx="247.7" cy="208.2" r="3.0" fill="#F9E154" opacity="0.85"/>
  <circle cx="211.7" cy="201.0" r="3.0" fill="#F9E154" opacity="0.85"/>
  <circle cx="218.9" cy="201.0" r="3.0" fill="#F9E154" opacity="0.85"/>
  <circle cx="226.1" cy="201.0" r="3.0" fill="#F9E154" opacity="0.85"/>
  <circle cx="233.3" cy="201.0" r="3.0" fill="#F9E154" opacity="0.85"/>
  <circle cx="240.5" cy="201.0" r="3.0" fill="#F9E154" opacity="0.85"/>
  <circle cx="247.7" cy="201.0" r="3.0" fill="#F9E154" opacity="0.85"/>
  <circle cx="211.7" cy="193.8" r="3.0" fill="#F9E154" opacity="0.85"/>
  <circle cx="218.9" cy="193.8" r="3.0" fill="#F9E154" opacity="0.85"/>
  <circle cx="226.1" cy="193.8" r="3.0" fill="#F9E154" opacity="0.85"/>
  <circle cx="233.3" cy="193.8" r="3.0" fill="#F9E154" opacity="0.85"/>
  <circle cx="240.5" cy="193.8" r="3.0" fill="#F9E154" opacity="0.85"/>
  <circle cx="247.7" cy="193.8" r="3.0" fill="#F9E154" opacity="0.85"/>
  <circle cx="211.7" cy="186.6" r="3.0" fill="#F9E154" opacity="0.85"/>
  <circle cx="218.9" cy="186.6" r="3.0" fill="#F9E154" opacity="0.85"/>
  <circle cx="226.1" cy="186.6" r="3.0" fill="#F9E154" opacity="0.85"/>
  <circle cx="233.3" cy="186.6" r="3.0" fill="#F9E154" opacity="0.85"/>
  <circle cx="240.5" cy="186.6" r="3.0" fill="#F9E154" opacity="0.85"/>
  <circle cx="247.7" cy="186.6" r="3.0" fill="#F9E154" opacity="0.85"/>
  <circle cx="211.7" cy="179.4" r="3.0" fill="#F9E154" opacity="0.85"/>
  <circle cx="218.9" cy="179.4" r="3.0" fill="#F9E154" opacity="0.85"/>
  <circle cx="226.1" cy="179.4" r="3.0" fill="#F9E154" opacity="0.85"/>
  <circle cx="233.3" cy="179.4" r="3.0" fill="#F9E154" opacity="0.85"/>
  <circle cx="240.5" cy="179.4" r="3.0" fill="#F9E154" opacity="0.85"/>
  <circle cx="247.7" cy="179.4" r="3.0" fill="#F9E154" opacity="0.85"/>
  <circle cx="211.7" cy="172.2" r="3.0" fill="#F9E154" opacity="0.85"/>
  <circle cx="218.9" cy="172.2" r="3.0" fill="#F9E154" opacity="0.85"/>
  <circle cx="226.1" cy="172.2" r="3.0" fill="#F9E154" opacity="0.85"/>
  <circle cx="233.3" cy="172.2" r="3.0" fill="#F9E154" opacity="0.85"/>
  <circle cx="240.5" cy="172.2" r="3.0" fill="#F9E154" opacity="0.85"/>
  <circle cx="247.7" cy="172.2" r="3.0" fill="#F9E154" opacity="0.85"/>
  <circle cx="211.7" cy="165.0" r="3.0" fill="#F9E154" opacity="0.85"/>
  <circle cx="218.9" cy="165.0" r="3.0" fill="#F9E154" opacity="0.85"/>
  <circle cx="226.1" cy="165.0" r="3.0" fill="#F9E154" opacity="0.85"/>
  <circle cx="233.3" cy="165.0" r="3.0" fill="#F9E154" opacity="0.85"/>
  <circle cx="240.5" cy="165.0" r="3.0" fill="#F9E154" opacity="0.85"/>
  <circle cx="247.7" cy="165.0" r="3.0" fill="#F9E154" opacity="0.85"/>
  <circle cx="211.7" cy="157.8" r="3.0" fill="#F9E154" opacity="0.85"/>
  <circle cx="218.9" cy="157.8" r="3.0" fill="#F9E154" opacity="0.85"/>
  <circle cx="226.1" cy="157.8" r="3.0" fill="#F9E154" opacity="0.85"/>
  <circle cx="233.3" cy="157.8" r="3.0" fill="#F9E154" opacity="0.85"/>
  <circle cx="240.5" cy="157.8" r="3.0" fill="#F9E154" opacity="0.85"/>
  <circle cx="247.7" cy="157.8" r="3.0" fill="#F9E154" opacity="0.85"/>
  <circle cx="211.7" cy="150.6" r="3.0" fill="#F9E154" opacity="0.85"/>
  <circle cx="218.9" cy="150.6" r="3.0" fill="#F9E154" opacity="0.85"/>
  <circle cx="226.1" cy="150.6" r="3.0" fill="#F9E154" opacity="0.85"/>
  <circle cx="233.3" cy="150.6" r="3.0" fill="#F9E154" opacity="0.85"/>
  <circle cx="240.5" cy="150.6" r="3.0" fill="#F9E154" opacity="0.85"/>
  <circle cx="247.7" cy="150.6" r="3.0" fill="#F9E154" opacity="0.85"/>
  <circle cx="211.7" cy="143.4" r="3.0" fill="#F9E154" opacity="0.85"/>
  <circle cx="218.9" cy="143.4" r="3.0" fill="#F9E154" opacity="0.85"/>
  <circle cx="226.1" cy="143.4" r="3.0" fill="#F9E154" opacity="0.85"/>
  <circle cx="233.3" cy="143.4" r="3.0" fill="#F9E154" opacity="0.85"/>
  <circle cx="240.5" cy="143.4" r="3.0" fill="#F9E154" opacity="0.85"/>
  <circle cx="247.7" cy="143.4" r="3.0" fill="#F9E154" opacity="0.85"/>
  <circle cx="211.7" cy="136.2" r="3.0" fill="#F9E154" opacity="0.85"/>
  <circle cx="218.9" cy="136.2" r="3.0" fill="#F9E154" opacity="0.85"/>
  <circle cx="226.1" cy="136.2" r="3.0" fill="#F9E154" opacity="0.85"/>
  <circle cx="233.3" cy="136.2" r="3.0" fill="#F9E154" opacity="0.85"/>
  <circle cx="240.5" cy="136.2" r="3.0" fill="#F9E154" opacity="0.85"/>
  <circle cx="247.7" cy="136.2" r="3.0" fill="#F9E154" opacity="0.85"/>
  <circle cx="211.7" cy="129.0" r="3.0" fill="#F9E154" opacity="0.85"/>
  <circle cx="218.9" cy="129.0" r="3.0" fill="#F9E154" opacity="0.85"/>
  <circle cx="226.1" cy="129.0" r="3.0" fill="#F9E154" opacity="0.85"/>
  <circle cx="233.3" cy="129.0" r="3.0" fill="#F9E154" opacity="0.85"/>
  <circle cx="240.5" cy="129.0" r="3.0" fill="#F9E154" opacity="0.85"/>
  <circle cx="247.7" cy="129.0" r="3.0" fill="#F9E154" opacity="0.85"/>
  <circle cx="260.7" cy="237.0" r="3.0" fill="#F0B27A" opacity="0.85"/>
  <circle cx="267.9" cy="237.0" r="3.0" fill="#F0B27A" opacity="0.85"/>
  <circle cx="275.1" cy="237.0" r="3.0" fill="#F0B27A" opacity="0.85"/>
  <circle cx="282.3" cy="237.0" r="3.0" fill="#F0B27A" opacity="0.85"/>
  <circle cx="289.5" cy="237.0" r="3.0" fill="#F0B27A" opacity="0.85"/>
  <circle cx="296.7" cy="237.0" r="3.0" fill="#F0B27A" opacity="0.85"/>
  <circle cx="303.9" cy="237.0" r="3.0" fill="#F0B27A" opacity="0.85"/>
  <circle cx="260.7" cy="229.8" r="3.0" fill="#F0B27A" opacity="0.85"/>
  <circle cx="267.9" cy="229.8" r="3.0" fill="#F0B27A" opacity="0.85"/>
  <circle cx="275.1" cy="229.8" r="3.0" fill="#F0B27A" opacity="0.85"/>
  <circle cx="282.3" cy="229.8" r="3.0" fill="#F0B27A" opacity="0.85"/>
  <circle cx="289.5" cy="229.8" r="3.0" fill="#F0B27A" opacity="0.85"/>
  <circle cx="296.7" cy="229.8" r="3.0" fill="#F0B27A" opacity="0.85"/>
  <circle cx="303.9" cy="229.8" r="3.0" fill="#F0B27A" opacity="0.85"/>
  <circle cx="260.7" cy="222.6" r="3.0" fill="#F0B27A" opacity="0.85"/>
  <circle cx="267.9" cy="222.6" r="3.0" fill="#F0B27A" opacity="0.85"/>
  <circle cx="275.1" cy="222.6" r="3.0" fill="#F0B27A" opacity="0.85"/>
  <circle cx="282.3" cy="222.6" r="3.0" fill="#F0B27A" opacity="0.85"/>
  <circle cx="289.5" cy="222.6" r="3.0" fill="#F0B27A" opacity="0.85"/>
  <circle cx="296.7" cy="222.6" r="3.0" fill="#F0B27A" opacity="0.85"/>
  <circle cx="303.9" cy="222.6" r="3.0" fill="#F0B27A" opacity="0.85"/>
  <circle cx="260.7" cy="215.4" r="3.0" fill="#F0B27A" opacity="0.85"/>
  <circle cx="267.9" cy="215.4" r="3.0" fill="#F0B27A" opacity="0.85"/>
  <circle cx="275.1" cy="215.4" r="3.0" fill="#F0B27A" opacity="0.85"/>
  <circle cx="282.3" cy="215.4" r="3.0" fill="#F0B27A" opacity="0.85"/>
  <circle cx="289.5" cy="215.4" r="3.0" fill="#F0B27A" opacity="0.85"/>
  <circle cx="296.7" cy="215.4" r="3.0" fill="#F0B27A" opacity="0.85"/>
  <circle cx="303.9" cy="215.4" r="3.0" fill="#F0B27A" opacity="0.85"/>
  <circle cx="260.7" cy="208.2" r="3.0" fill="#F0B27A" opacity="0.85"/>
  <circle cx="267.9" cy="208.2" r="3.0" fill="#F0B27A" opacity="0.85"/>
  <circle cx="275.1" cy="208.2" r="3.0" fill="#F0B27A" opacity="0.85"/>
  <circle cx="282.3" cy="208.2" r="3.0" fill="#F0B27A" opacity="0.85"/>
  <circle cx="289.5" cy="208.2" r="3.0" fill="#F0B27A" opacity="0.85"/>
  <circle cx="296.7" cy="208.2" r="3.0" fill="#F0B27A" opacity="0.85"/>
  <circle cx="303.9" cy="208.2" r="3.0" fill="#F0B27A" opacity="0.85"/>
  <circle cx="260.7" cy="201.0" r="3.0" fill="#F0B27A" opacity="0.85"/>
  <circle cx="267.9" cy="201.0" r="3.0" fill="#F0B27A" opacity="0.85"/>
  <circle cx="275.1" cy="201.0" r="3.0" fill="#F0B27A" opacity="0.85"/>
  <circle cx="282.3" cy="201.0" r="3.0" fill="#F0B27A" opacity="0.85"/>
  <circle cx="289.5" cy="201.0" r="3.0" fill="#F0B27A" opacity="0.85"/>
  <circle cx="296.7" cy="201.0" r="3.0" fill="#F0B27A" opacity="0.85"/>
  <circle cx="303.9" cy="201.0" r="3.0" fill="#F0B27A" opacity="0.85"/>
  <circle cx="260.7" cy="193.8" r="3.0" fill="#F0B27A" opacity="0.85"/>
  <circle cx="267.9" cy="193.8" r="3.0" fill="#F0B27A" opacity="0.85"/>
  <circle cx="275.1" cy="193.8" r="3.0" fill="#F0B27A" opacity="0.85"/>
  <circle cx="282.3" cy="193.8" r="3.0" fill="#F0B27A" opacity="0.85"/>
  <circle cx="289.5" cy="193.8" r="3.0" fill="#F0B27A" opacity="0.85"/>
  <circle cx="296.7" cy="193.8" r="3.0" fill="#F0B27A" opacity="0.85"/>
  <circle cx="303.9" cy="193.8" r="3.0" fill="#F0B27A" opacity="0.85"/>
  <circle cx="260.7" cy="186.6" r="3.0" fill="#F0B27A" opacity="0.85"/>
  <circle cx="267.9" cy="186.6" r="3.0" fill="#F0B27A" opacity="0.85"/>
  <circle cx="275.1" cy="186.6" r="3.0" fill="#F0B27A" opacity="0.85"/>
  <circle cx="282.3" cy="186.6" r="3.0" fill="#F0B27A" opacity="0.85"/>
  <circle cx="289.5" cy="186.6" r="3.0" fill="#F0B27A" opacity="0.85"/>
  <circle cx="296.7" cy="186.6" r="3.0" fill="#F0B27A" opacity="0.85"/>
  <circle cx="303.9" cy="186.6" r="3.0" fill="#F0B27A" opacity="0.85"/>
  <circle cx="260.7" cy="179.4" r="3.0" fill="#F0B27A" opacity="0.85"/>
  <circle cx="267.9" cy="179.4" r="3.0" fill="#F0B27A" opacity="0.85"/>
  <circle cx="275.1" cy="179.4" r="3.0" fill="#F0B27A" opacity="0.85"/>
  <circle cx="282.3" cy="179.4" r="3.0" fill="#F0B27A" opacity="0.85"/>
  <circle cx="289.5" cy="179.4" r="3.0" fill="#F0B27A" opacity="0.85"/>
  <circle cx="296.7" cy="179.4" r="3.0" fill="#F0B27A" opacity="0.85"/>
  <circle cx="303.9" cy="179.4" r="3.0" fill="#F0B27A" opacity="0.85"/>
  <circle cx="260.7" cy="172.2" r="3.0" fill="#F0B27A" opacity="0.85"/>
  <circle cx="267.9" cy="172.2" r="3.0" fill="#F0B27A" opacity="0.85"/>
  <circle cx="275.1" cy="172.2" r="3.0" fill="#F0B27A" opacity="0.85"/>
  <circle cx="282.3" cy="172.2" r="3.0" fill="#F0B27A" opacity="0.85"/>
  <circle cx="289.5" cy="172.2" r="3.0" fill="#F0B27A" opacity="0.85"/>
  <circle cx="296.7" cy="172.2" r="3.0" fill="#F0B27A" opacity="0.85"/>
  <circle cx="303.9" cy="172.2" r="3.0" fill="#F0B27A" opacity="0.85"/>
  <circle cx="260.7" cy="165.0" r="3.0" fill="#F0B27A" opacity="0.85"/>
  <circle cx="267.9" cy="165.0" r="3.0" fill="#F0B27A" opacity="0.85"/>
  <circle cx="275.1" cy="165.0" r="3.0" fill="#F0B27A" opacity="0.85"/>
  <circle cx="282.3" cy="165.0" r="3.0" fill="#F0B27A" opacity="0.85"/>
  <circle cx="289.5" cy="165.0" r="3.0" fill="#F0B27A" opacity="0.85"/>
  <circle cx="296.7" cy="165.0" r="3.0" fill="#F0B27A" opacity="0.85"/>
  <circle cx="303.9" cy="165.0" r="3.0" fill="#F0B27A" opacity="0.85"/>
  <circle cx="260.7" cy="157.8" r="3.0" fill="#F0B27A" opacity="0.85"/>
  <circle cx="267.9" cy="157.8" r="3.0" fill="#F0B27A" opacity="0.85"/>
  <circle cx="275.1" cy="157.8" r="3.0" fill="#F0B27A" opacity="0.85"/>
  <circle cx="282.3" cy="157.8" r="3.0" fill="#F0B27A" opacity="0.85"/>
  <circle cx="289.5" cy="157.8" r="3.0" fill="#F0B27A" opacity="0.85"/>
  <circle cx="296.7" cy="157.8" r="3.0" fill="#F0B27A" opacity="0.85"/>
  <circle cx="303.9" cy="157.8" r="3.0" fill="#F0B27A" opacity="0.85"/>
  <circle cx="275.1" cy="150.6" r="3.0" fill="#F0B27A" opacity="0.85"/>
  <circle cx="282.3" cy="150.6" r="3.0" fill="#F0B27A" opacity="0.85"/>
  <circle cx="289.5" cy="150.6" r="3.0" fill="#F0B27A" opacity="0.85"/>
  <circle cx="315.0" cy="237.0" r="3.0" fill="#F1948A" opacity="0.85"/>
  <circle cx="322.2" cy="237.0" r="3.0" fill="#F1948A" opacity="0.85"/>
  <circle cx="329.4" cy="237.0" r="3.0" fill="#F1948A" opacity="0.85"/>
  <circle cx="336.6" cy="237.0" r="3.0" fill="#F1948A" opacity="0.85"/>
  <circle cx="343.8" cy="237.0" r="3.0" fill="#F1948A" opacity="0.85"/>
  <circle cx="351.0" cy="237.0" r="3.0" fill="#F1948A" opacity="0.85"/>
  <circle cx="358.2" cy="237.0" r="3.0" fill="#F1948A" opacity="0.85"/>
  <circle cx="365.4" cy="237.0" r="3.0" fill="#F1948A" opacity="0.85"/>
  <circle cx="315.0" cy="229.8" r="3.0" fill="#F1948A" opacity="0.85"/>
  <circle cx="322.2" cy="229.8" r="3.0" fill="#F1948A" opacity="0.85"/>
  <circle cx="329.4" cy="229.8" r="3.0" fill="#F1948A" opacity="0.85"/>
  <circle cx="336.6" cy="229.8" r="3.0" fill="#F1948A" opacity="0.85"/>
  <circle cx="343.8" cy="229.8" r="3.0" fill="#F1948A" opacity="0.85"/>
  <circle cx="351.0" cy="229.8" r="3.0" fill="#F1948A" opacity="0.85"/>
  <circle cx="358.2" cy="229.8" r="3.0" fill="#F1948A" opacity="0.85"/>
  <circle cx="365.4" cy="229.8" r="3.0" fill="#F1948A" opacity="0.85"/>
  <circle cx="315.0" cy="222.6" r="3.0" fill="#F1948A" opacity="0.85"/>
  <circle cx="322.2" cy="222.6" r="3.0" fill="#F1948A" opacity="0.85"/>
  <circle cx="329.4" cy="222.6" r="3.0" fill="#F1948A" opacity="0.85"/>
  <circle cx="336.6" cy="222.6" r="3.0" fill="#F1948A" opacity="0.85"/>
  <circle cx="343.8" cy="222.6" r="3.0" fill="#F1948A" opacity="0.85"/>
  <circle cx="351.0" cy="222.6" r="3.0" fill="#F1948A" opacity="0.85"/>
  <circle cx="358.2" cy="222.6" r="3.0" fill="#F1948A" opacity="0.85"/>
  <circle cx="365.4" cy="222.6" r="3.0" fill="#F1948A" opacity="0.85"/>
  <circle cx="315.0" cy="215.4" r="3.0" fill="#F1948A" opacity="0.85"/>
  <circle cx="322.2" cy="215.4" r="3.0" fill="#F1948A" opacity="0.85"/>
  <circle cx="329.4" cy="215.4" r="3.0" fill="#F1948A" opacity="0.85"/>
  <circle cx="336.6" cy="215.4" r="3.0" fill="#F1948A" opacity="0.85"/>
  <circle cx="343.8" cy="215.4" r="3.0" fill="#F1948A" opacity="0.85"/>
  <circle cx="351.0" cy="215.4" r="3.0" fill="#F1948A" opacity="0.85"/>
  <circle cx="358.2" cy="215.4" r="3.0" fill="#F1948A" opacity="0.85"/>
  <circle cx="365.4" cy="215.4" r="3.0" fill="#F1948A" opacity="0.85"/>
  <circle cx="315.0" cy="208.2" r="3.0" fill="#F1948A" opacity="0.85"/>
  <circle cx="322.2" cy="208.2" r="3.0" fill="#F1948A" opacity="0.85"/>
  <circle cx="329.4" cy="208.2" r="3.0" fill="#F1948A" opacity="0.85"/>
  <circle cx="336.6" cy="208.2" r="3.0" fill="#F1948A" opacity="0.85"/>
  <circle cx="343.8" cy="208.2" r="3.0" fill="#F1948A" opacity="0.85"/>
  <circle cx="351.0" cy="208.2" r="3.0" fill="#F1948A" opacity="0.85"/>
  <circle cx="358.2" cy="208.2" r="3.0" fill="#F1948A" opacity="0.85"/>
  <circle cx="365.4" cy="208.2" r="3.0" fill="#F1948A" opacity="0.85"/>
  <circle cx="315.0" cy="201.0" r="3.0" fill="#F1948A" opacity="0.85"/>
  <circle cx="322.2" cy="201.0" r="3.0" fill="#F1948A" opacity="0.85"/>
  <circle cx="329.4" cy="201.0" r="3.0" fill="#F1948A" opacity="0.85"/>
  <circle cx="336.6" cy="201.0" r="3.0" fill="#F1948A" opacity="0.85"/>
  <circle cx="343.8" cy="201.0" r="3.0" fill="#F1948A" opacity="0.85"/>
  <circle cx="351.0" cy="201.0" r="3.0" fill="#F1948A" opacity="0.85"/>
  <circle cx="358.2" cy="201.0" r="3.0" fill="#F1948A" opacity="0.85"/>
  <circle cx="365.4" cy="201.0" r="3.0" fill="#F1948A" opacity="0.85"/>
  <circle cx="315.0" cy="193.8" r="3.0" fill="#F1948A" opacity="0.85"/>
  <circle cx="322.2" cy="193.8" r="3.0" fill="#F1948A" opacity="0.85"/>
  <circle cx="329.4" cy="193.8" r="3.0" fill="#F1948A" opacity="0.85"/>
  <circle cx="336.6" cy="193.8" r="3.0" fill="#F1948A" opacity="0.85"/>
  <circle cx="343.8" cy="193.8" r="3.0" fill="#F1948A" opacity="0.85"/>
  <circle cx="351.0" cy="193.8" r="3.0" fill="#F1948A" opacity="0.85"/>
  <circle cx="358.2" cy="193.8" r="3.0" fill="#F1948A" opacity="0.85"/>
  <circle cx="365.4" cy="193.8" r="3.0" fill="#F1948A" opacity="0.85"/>
  <circle cx="322.2" cy="186.6" r="3.0" fill="#F1948A" opacity="0.85"/>
  <circle cx="329.4" cy="186.6" r="3.0" fill="#F1948A" opacity="0.85"/>
  <circle cx="336.6" cy="186.6" r="3.0" fill="#F1948A" opacity="0.85"/>
  <circle cx="343.8" cy="186.6" r="3.0" fill="#F1948A" opacity="0.85"/>
  <circle cx="351.0" cy="186.6" r="3.0" fill="#F1948A" opacity="0.85"/>
  <circle cx="358.2" cy="186.6" r="3.0" fill="#F1948A" opacity="0.85"/>
  <circle cx="378.6" cy="237.0" r="3.0" fill="#E74C3C" opacity="0.85"/>
  <circle cx="385.8" cy="237.0" r="3.0" fill="#E74C3C" opacity="0.85"/>
  <circle cx="393.0" cy="237.0" r="3.0" fill="#E74C3C" opacity="0.85"/>
  <circle cx="400.2" cy="237.0" r="3.0" fill="#E74C3C" opacity="0.85"/>
  <circle cx="407.4" cy="237.0" r="3.0" fill="#E74C3C" opacity="0.85"/>
  <circle cx="414.6" cy="237.0" r="3.0" fill="#E74C3C" opacity="0.85"/>
  <circle cx="421.8" cy="237.0" r="3.0" fill="#E74C3C" opacity="0.85"/>
  <circle cx="429.0" cy="237.0" r="3.0" fill="#E74C3C" opacity="0.85"/>
  <circle cx="378.6" cy="229.8" r="3.0" fill="#E74C3C" opacity="0.85"/>
  <circle cx="385.8" cy="229.8" r="3.0" fill="#E74C3C" opacity="0.85"/>
  <circle cx="393.0" cy="229.8" r="3.0" fill="#E74C3C" opacity="0.85"/>
  <circle cx="400.2" cy="229.8" r="3.0" fill="#E74C3C" opacity="0.85"/>
  <circle cx="407.4" cy="229.8" r="3.0" fill="#E74C3C" opacity="0.85"/>
  <circle cx="414.6" cy="229.8" r="3.0" fill="#E74C3C" opacity="0.85"/>
  <circle cx="421.8" cy="229.8" r="3.0" fill="#E74C3C" opacity="0.85"/>
  <circle cx="429.0" cy="229.8" r="3.0" fill="#E74C3C" opacity="0.85"/>
  <circle cx="378.6" cy="222.6" r="3.0" fill="#E74C3C" opacity="0.85"/>
  <circle cx="385.8" cy="222.6" r="3.0" fill="#E74C3C" opacity="0.85"/>
  <circle cx="393.0" cy="222.6" r="3.0" fill="#E74C3C" opacity="0.85"/>
  <circle cx="400.2" cy="222.6" r="3.0" fill="#E74C3C" opacity="0.85"/>
  <circle cx="407.4" cy="222.6" r="3.0" fill="#E74C3C" opacity="0.85"/>
  <circle cx="414.6" cy="222.6" r="3.0" fill="#E74C3C" opacity="0.85"/>
  <circle cx="421.8" cy="222.6" r="3.0" fill="#E74C3C" opacity="0.85"/>
  <circle cx="429.0" cy="222.6" r="3.0" fill="#E74C3C" opacity="0.85"/>
  <circle cx="378.6" cy="215.4" r="3.0" fill="#E74C3C" opacity="0.85"/>
  <circle cx="385.8" cy="215.4" r="3.0" fill="#E74C3C" opacity="0.85"/>
  <circle cx="393.0" cy="215.4" r="3.0" fill="#E74C3C" opacity="0.85"/>
  <circle cx="400.2" cy="215.4" r="3.0" fill="#E74C3C" opacity="0.85"/>
  <circle cx="407.4" cy="215.4" r="3.0" fill="#E74C3C" opacity="0.85"/>
  <circle cx="414.6" cy="215.4" r="3.0" fill="#E74C3C" opacity="0.85"/>
  <circle cx="421.8" cy="215.4" r="3.0" fill="#E74C3C" opacity="0.85"/>
  <circle cx="429.0" cy="215.4" r="3.0" fill="#E74C3C" opacity="0.85"/>
  <circle cx="385.8" cy="208.2" r="3.0" fill="#E74C3C" opacity="0.85"/>
  <circle cx="393.0" cy="208.2" r="3.0" fill="#E74C3C" opacity="0.85"/>
  <circle cx="400.2" cy="208.2" r="3.0" fill="#E74C3C" opacity="0.85"/>
  <circle cx="407.4" cy="208.2" r="3.0" fill="#E74C3C" opacity="0.85"/>
  <circle cx="414.6" cy="208.2" r="3.0" fill="#E74C3C" opacity="0.85"/>
  <circle cx="421.8" cy="208.2" r="3.0" fill="#E74C3C" opacity="0.85"/>
  <circle cx="445.0" cy="237.0" r="3.0" fill="#D35400" opacity="0.85"/>
  <circle cx="452.2" cy="237.0" r="3.0" fill="#D35400" opacity="0.85"/>
  <circle cx="459.4" cy="237.0" r="3.0" fill="#D35400" opacity="0.85"/>
  <circle cx="466.6" cy="237.0" r="3.0" fill="#D35400" opacity="0.85"/>
  <circle cx="473.8" cy="237.0" r="3.0" fill="#D35400" opacity="0.85"/>
  <circle cx="481.0" cy="237.0" r="3.0" fill="#D35400" opacity="0.85"/>
  <circle cx="488.2" cy="237.0" r="3.0" fill="#D35400" opacity="0.85"/>
  <circle cx="495.4" cy="237.0" r="3.0" fill="#D35400" opacity="0.85"/>
  <circle cx="502.6" cy="237.0" r="3.0" fill="#D35400" opacity="0.85"/>
  <circle cx="445.0" cy="229.8" r="3.0" fill="#D35400" opacity="0.85"/>
  <circle cx="452.2" cy="229.8" r="3.0" fill="#D35400" opacity="0.85"/>
  <circle cx="459.4" cy="229.8" r="3.0" fill="#D35400" opacity="0.85"/>
  <circle cx="466.6" cy="229.8" r="3.0" fill="#D35400" opacity="0.85"/>
  <circle cx="473.8" cy="229.8" r="3.0" fill="#D35400" opacity="0.85"/>
  <circle cx="481.0" cy="229.8" r="3.0" fill="#D35400" opacity="0.85"/>
  <circle cx="488.2" cy="229.8" r="3.0" fill="#D35400" opacity="0.85"/>
  <circle cx="495.4" cy="229.8" r="3.0" fill="#D35400" opacity="0.85"/>
  <circle cx="502.6" cy="229.8" r="3.0" fill="#D35400" opacity="0.85"/>
  <circle cx="466.6" cy="222.6" r="3.0" fill="#D35400" opacity="0.85"/>
  <circle cx="473.8" cy="222.6" r="3.0" fill="#D35400" opacity="0.85"/>
  <circle cx="481.0" cy="222.6" r="3.0" fill="#D35400" opacity="0.85"/>
  <circle cx="518.5" cy="237.0" r="3.0" fill="#AF7AC5" opacity="0.85"/>
  <circle cx="525.7" cy="237.0" r="3.0" fill="#AF7AC5" opacity="0.85"/>
  <circle cx="532.9" cy="237.0" r="3.0" fill="#AF7AC5" opacity="0.85"/>
  <circle cx="540.1" cy="237.0" r="3.0" fill="#AF7AC5" opacity="0.85"/>
  <circle cx="547.3" cy="237.0" r="3.0" fill="#AF7AC5" opacity="0.85"/>
  <circle cx="554.5" cy="237.0" r="3.0" fill="#AF7AC5" opacity="0.85"/>
  <circle cx="561.7" cy="237.0" r="3.0" fill="#AF7AC5" opacity="0.85"/>
  <circle cx="568.9" cy="237.0" r="3.0" fill="#AF7AC5" opacity="0.85"/>
  <circle cx="576.1" cy="237.0" r="3.0" fill="#AF7AC5" opacity="0.85"/>
  <circle cx="583.3" cy="237.0" r="3.0" fill="#AF7AC5" opacity="0.85"/>
  <circle cx="550.9" cy="229.8" r="3.0" fill="#AF7AC5" opacity="0.85"/>
  <circle cx="621.2" cy="237.0" r="3.0" fill="#8E44AD" opacity="0.85"/>
  <circle cx="628.4" cy="237.0" r="3.0" fill="#8E44AD" opacity="0.85"/>
  <circle cx="635.6" cy="237.0" r="3.0" fill="#8E44AD" opacity="0.85"/>
  <circle cx="642.8" cy="237.0" r="3.0" fill="#8E44AD" opacity="0.85"/>
  <circle cx="650.0" cy="237.0" r="3.0" fill="#8E44AD" opacity="0.85"/>

  <text x="80.0" y="254" text-anchor="middle" font-size="7" fill="#78909C" font-family="'SF Mono', monospace">0</text>
  <text x="117.6" y="254" text-anchor="middle" font-size="7" fill="#78909C" font-family="'SF Mono', monospace">1</text>
  <text x="159.1" y="254" text-anchor="middle" font-size="7" fill="#78909C" font-family="'SF Mono', monospace">2.1</text>
  <text x="204.6" y="254" text-anchor="middle" font-size="7" fill="#78909C" font-family="'SF Mono', monospace">3.3</text>
  <text x="254.7" y="254" text-anchor="middle" font-size="7" fill="#78909C" font-family="'SF Mono', monospace">4.6</text>
  <text x="309.8" y="254" text-anchor="middle" font-size="7" fill="#78909C" font-family="'SF Mono', monospace">6.1</text>
  <text x="370.5" y="254" text-anchor="middle" font-size="7" fill="#78909C" font-family="'SF Mono', monospace">7.7</text>
  <text x="437.2" y="254" text-anchor="middle" font-size="7" fill="#78909C" font-family="'SF Mono', monospace">9.5</text>
  <text x="510.5" y="254" text-anchor="middle" font-size="7" fill="#78909C" font-family="'SF Mono', monospace">11.4</text>
  <text x="591.2" y="254" text-anchor="middle" font-size="7" fill="#78909C" font-family="'SF Mono', monospace">13.6</text>
  <text x="680.0" y="254" text-anchor="middle" font-size="7" fill="#78909C" font-family="'SF Mono', monospace">15.9</text>

  <text x="98.8" y="266" text-anchor="middle" font-size="6" fill="#546E7A" font-family="'SF Mono', monospace">w=1</text>
  <text x="138.4" y="266" text-anchor="middle" font-size="6" fill="#546E7A" font-family="'SF Mono', monospace">w=1.1</text>
  <text x="181.8" y="266" text-anchor="middle" font-size="6" fill="#546E7A" font-family="'SF Mono', monospace">w=1.2</text>
  <text x="229.7" y="266" text-anchor="middle" font-size="6" fill="#546E7A" font-family="'SF Mono', monospace">w=1.3</text>
  <text x="282.3" y="266" text-anchor="middle" font-size="6" fill="#546E7A" font-family="'SF Mono', monospace">w=1.5</text>
  <text x="340.2" y="266" text-anchor="middle" font-size="6" fill="#546E7A" font-family="'SF Mono', monospace">w=1.6</text>
  <text x="403.8" y="266" text-anchor="middle" font-size="6" fill="#546E7A" font-family="'SF Mono', monospace">w=1.8</text>
  <text x="473.8" y="266" text-anchor="middle" font-size="6" fill="#546E7A" font-family="'SF Mono', monospace">w=1.9</text>
  <text x="550.9" y="266" text-anchor="middle" font-size="6" fill="#546E7A" font-family="'SF Mono', monospace">w=2.1</text>
  <text x="635.6" y="266" text-anchor="middle" font-size="6" fill="#546E7A" font-family="'SF Mono', monospace">w=2.4</text>

  <text x="380.0" y="56" text-anchor="middle" font-size="9" fill="#58D68D" font-family="'SF Mono', monospace" opacity="0.9">x1.1 growth — 10 buckets, each width = prev x 1.1</text>
  <text x="55" y="140" text-anchor="middle" font-size="8" fill="#4A5A68" font-family="'SF Mono', monospace" transform="rotate(-90 55 140)">request count</text>
</svg>
