<svg xmlns="http://www.w3.org/2000/svg" width="3969.333" height="3969.333" preserveAspectRatio="xMidYMid meet" version="1.0" viewBox="0 0 2977 2977"><metadata>Created by potrace 1.11, written by Peter Selinger 2001-2013</metadata><g fill="#000" stroke="none"><path d="M0 14885 l0 -14885 14885 0 14885 0 0 14885 0 14885 -14885 0 -14885 0 0 -14885z m15605 14195 c554 -28 1005 -112 1495 -278 677 -230 1301 -549 2545 -1300 2320 -1401 3954 -2604 5229 -3852 766 -749 1322 -1397 1882 -2195 810 -1153 1454 -2517 1869 -3955 494 -1715 669 -3559 505 -5335 -105 -1135 -359 -2279 -736 -3322 -937 -2592 -2693 -4887 -4924 -6435 -705 -489 -1460 -903 -2235 -1225 -856 -356 -1704 -597 -2700 -768 -1129 -193 -2444 -237 -3715 -124 -971 86 -1846 232 -2871 479 -1706 411 -3638 1118 -5239 1917 -739 369 -1238 690 -1705 1096 -125 110 -445 427 -579 577 -758 842 -1434 2012 -1948 3375 -545 1446 -884 2994 -1002 4580 -36 473 -41 632 -41 1270 0 640 6 814 41 1275 148 1955 641 3874 1439 5604 707 1534 1658 2965 2824 4251 175 194 761 781 961 965 1279 1173 2696 2072 4160 2637 660 255 1355 447 2019 559 366 61 1154 153 1586 184 404 30 807 36 1140 20z" transform="translate(0.000000,2977.000000) scale(0.100000,-0.100000)"/><path d="M13905 28463 c-22 -1 -139 -10 -260 -19 -886 -63 -1855 -284 -2680 -612 -691 -275 -1212 -548 -1823 -955 -539 -359 -958 -694 -1450 -1161 -761 -720 -1464 -1598 -2067 -2581 -246 -401 -637 -1126 -858 -1590 -833 -1750 -1293 -3431 -1414 -5159 -21 -300 -24 -1133 -5 -1391 43 -584 103 -1027 203 -1511 271 -1313 804 -2540 1520 -3505 268 -360 529 -661 871 -1001 801 -797 1624 -1412 3353 -2503 1922 -1213 3484 -1984 4931 -2434 843 -261 1518 -399 2454 -500 120 -13 453 -37 725 -52 285 -16 1345 -17 1745 -1 2158 83 3390 265 4458 658 729 268 1356 640 1847 1095 866 804 1575 1952 2240 3629 904 2280 1262 4680 1019 6840 -168 1498 -631 2878 -1354 4040 -398 639 -875 1247 -1560 1990 -430 466 -1657 1698 -2403 2413 -1130 1083 -2000 1805 -2902 2412 -849 570 -1667 985 -2525 1279 -1019 351 -1987 549 -2980 611 -218 13 -953 19 -1085 8z m-115 -1317 c265 -31 586 -101 791 -172 137 -46 352 -151 459 -222 262 -174 464 -486 584 -902 93 -320 125 -623 126 -1190 1 -945 58 -1547 290 -3075 232 -1527 290 -2087 290 -2827 l0 -307 -55 -20 c-155 -58 -339 12 -529 202 -109 108 -133 139 -543 707 -834 1156 -1388 1968 -1838 2695 -228 368 -371 566 -714 989 -446 549 -622 771 -792 1006 -432 593 -672 1058 -761 1475 -20 94 -23 137 -22 295 0 167 3 195 27 282 54 202 147 357 310 515 271 263 677 440 1200 522 106 17 169 25 382 45 101 10 668 -3 795 -18z m4545 -861 c485 -40 811 -104 1232 -244 886 -293 1445 -749 1643 -1341 73 -219 83 -529 25 -815 -70 -346 -219 -691 -550 -1275 -86 -151 -217 -399 -292 -550 -636 -1291 -851 -1710 -1118 -2185 -784 -1394 -1437 -2145 -1953 -2245 -88 -18 -232 -8 -305 20 -76 29 -198 111 -235 158 -156 198 -196 616 -126 1312 8 85 38 333 65 550 63 496 71 686 59 1430 -12 669 -27 1037 -71 1650 -40 565 -114 1299 -180 1770 -16 118 -37 269 -46 335 -11 81 -17 193 -17 345 0 197 3 238 23 329 46 213 112 342 246 476 190 191 388 251 955 289 137 9 489 4 645 -9z m-8774 -916 c563 -57 1126 -378 1616 -920 268 -297 475 -576 1003 -1354 474 -698 1803 -2615 1933 -2790 50 -66 203 -259 341 -430 495 -611 732 -955 892 -1290 62 -131 125 -309 150 -426 26 -118 26 -358 1 -449 -58 -205 -174 -330 -377 -401 -99 -35 -200 -49 -359 -49 -617 0 -1548 318 -3046 1040 -381 183 -617 290 -1175 528 -322 137 -1051 449 -1620 692 -569 243 -1102 475 -1185 514 -476 229 -705 448 -810 776 -23 70 -28 109 -33 222 -5 157 6 267 49 478 72 346 374 1484 478 1800 201 605 449 1091 727 1420 397 471 889 693 1415 639z m13261 -2003 c411 -80 881 -485 1233 -1066 153 -252 488 -900 594 -1150 257 -605 272 -1046 49 -1481 -82 -160 -190 -299 -355 -459 -254 -246 -518 -417 -1048 -679 -758 -376 -1625 -755 -2670 -1168 -792 -313 -1065 -409 -1410 -498 -326 -85 -552 -116 -834 -117 -200 0 -321 13 -433 48 -269 85 -320 339 -133 665 66 115 683 952 2500 3389 565 758 556 746 852 1190 243 363 356 524 481 679 233 291 450 482 655 576 70 32 192 70 252 78 70 9 198 6 267 -7z m-15644 -3831 c319 -48 773 -172 1216 -332 540 -195 1048 -420 2046 -908 497 -243 953 -457 1140 -535 63 -27 300 -119 525 -205 226 -86 507 -195 625 -242 759 -303 1210 -554 1611 -900 136 -118 288 -270 350 -352 158 -209 171 -377 38 -510 -132 -132 -348 -226 -849 -367 -647 -183 -1299 -327 -2425 -539 -341 -64 -993 -190 -1450 -280 -1098 -217 -1272 -248 -1675 -294 -392 -45 -811 -63 -1003 -42 -258 28 -433 112 -561 267 -210 255 -562 1242 -740 2074 -166 780 -232 1535 -171 1958 56 388 194 690 415 912 168 167 319 249 565 303 47 11 253 6 343 -8z m17942 -1125 c168 -44 332 -146 442 -274 202 -234 338 -561 466 -1116 35 -150 237 -1138 278 -1360 24 -126 34 -323 23 -448 -24 -270 -118 -446 -285 -528 -88 -44 -183 -55 -297 -34 -40 7 -252 73 -472 146 -1948 647 -3537 1006 -5460 1233 -432 51 -526 69 -690 127 -79 29 -205 94 -249 129 l-29 23 59 -20 c91 -32 303 -29 484 6 721 142 1721 556 3750 1553 451 222 698 338 835 393 222 88 448 153 642 185 133 22 393 14 503 -15z m-8530 -2705 c43 -22 107 -99 143 -172 94 -185 153 -426 241 -973 346 -2145 376 -4291 90 -6425 -67 -504 -198 -1262 -255 -1475 -57 -216 -136 -343 -246 -397 -47 -22 -73 -28 -147 -31 -84 -3 -108 1 -306 52 -118 31 -642 164 -1165 297 -522 133 -1031 264 -1130 291 -661 183 -1021 469 -1149 911 -95 327 -37 708 175 1169 79 171 149 299 401 733 554 956 943 1676 1397 2590 366 735 676 1402 905 1949 161 382 222 520 331 741 231 470 421 713 590 756 36 9 90 2 125 -16z m3030 -286 c885 -122 2413 -705 4232 -1615 878 -439 1460 -761 1678 -929 400 -309 602 -677 651 -1190 49 -515 -113 -1072 -569 -1955 -230 -447 -352 -661 -506 -890 -259 -384 -497 -617 -794 -777 -490 -265 -945 -240 -1368 75 -117 87 -403 374 -585 587 -770 900 -1414 1792 -2039 2825 -75 124 -201 331 -280 460 -537 881 -760 1270 -994 1738 -307 613 -440 1015 -423 1279 4 71 11 97 41 158 115 232 423 307 956 234z m-1960 -316 c79 -46 143 -98 220 -179 224 -236 364 -549 565 -1259 104 -369 153 -516 250 -750 293 -708 607 -1335 986 -1967 207 -344 403 -636 865 -1288 541 -762 795 -1184 995 -1652 194 -454 301 -956 286 -1338 -7 -171 -29 -268 -87 -386 -66 -136 -168 -214 -361 -278 -182 -61 -445 -108 -769 -137 -365 -34 -1380 5 -1755 67 -285 47 -514 176 -662 372 -175 231 -267 527 -314 1002 -9 91 -12 339 -10 905 4 1200 -14 1532 -184 3400 -159 1745 -185 2170 -185 3027 0 273 3 503 6 512 5 13 12 13 57 -5 29 -11 72 -32 97 -46z m-3170 -237 c285 -46 479 -143 568 -283 44 -69 62 -142 62 -247 0 -250 -146 -568 -484 -1056 -91 -132 -157 -223 -457 -635 -244 -335 -355 -513 -455 -728 -141 -302 -257 -591 -418 -1046 -328 -922 -453 -1203 -658 -1474 -368 -487 -950 -675 -1678 -541 -267 49 -515 132 -838 279 -595 273 -1132 624 -1622 1062 -536 479 -887 1031 -995 1563 -22 108 -30 375 -16 496 42 344 171 628 380 834 120 120 237 197 388 260 162 67 258 93 543 150 568 112 963 230 2075 614 530 184 952 325 1210 405 625 193 1182 312 1635 351 69 5 141 12 160 14 84 10 510 -3 600 -18z" transform="translate(0.000000,2977.000000) scale(0.100000,-0.100000)"/></g></svg>